<?xml version="1.0" encoding="utf-8"?>
<!-- Generator: Adobe Illustrator 24.0.1, SVG Export Plug-In . SVG Version: 6.00 Build 0)  -->
<svg version="1.1" id="Layer_1" xmlns="http://www.w3.org/2000/svg" xmlns:xlink="http://www.w3.org/1999/xlink" x="0px" y="0px"
	 viewBox="0 0 85.04 85.04" style="enable-background:new 0 0 85.04 85.04;" xml:space="preserve">
<style type="text/css">
	.st0{fill:#FFFFFF;}
</style>
<g>
	<g>
		<path class="st0" d="M212.17-157.51c0,1.17-0.95,2.12-2.12,2.12h-2.12h-16.96h-33.92h-16.96h-2.12c-1.17,0-2.12-0.95-2.12-2.12
			v-14.63l0.83-4.16c0.53-2.63,2.85-4.53,5.53-4.53c0.97,0,1.82-0.66,2.06-1.61l4.76-19.02c0.71-2.83,3.25-4.82,6.17-4.82h37.64
			c2.92,0,5.46,1.98,6.17,4.82l4.76,19.02c0.23,0.94,1.08,1.61,2.06,1.61c2.68,0,5,1.9,5.53,4.53l0.83,4.16V-157.51z M205.81-146.91
			c0,1.17-0.95,2.12-2.12,2.12h-8.48c-1.17,0-2.12-0.95-2.12-2.12v-4.24h12.72V-146.91z M154.93-146.91c0,1.17-0.95,2.12-2.12,2.12
			h-8.48c-1.17,0-2.12-0.95-2.12-2.12v-4.24h12.72V-146.91z M216.36-172.77l-0.87-4.36c-0.81-4.04-4.04-7.1-7.99-7.79l-4.39-17.56
			c-1.18-4.73-5.41-8.03-10.28-8.03h-37.64c-4.87,0-9.1,3.3-10.28,8.03l-4.39,17.56c-3.95,0.69-7.19,3.75-8,7.79l-0.87,4.36
			c-0.03,0.14-0.04,0.28-0.04,0.42v14.84c0,3.51,2.85,6.36,6.36,6.36v4.24c0,3.51,2.85,6.36,6.36,6.36h8.48
			c3.51,0,6.36-2.85,6.36-6.36v-4.24h29.68v4.24c0,3.51,2.85,6.36,6.36,6.36h8.48c3.51,0,6.36-2.85,6.36-6.36v-4.24
			c3.51,0,6.36-2.85,6.36-6.36v-14.84C216.41-172.49,216.39-172.63,216.36-172.77"/>
		<path class="st0" d="M190.57-185.07c0.24-0.67,0.39-1.37,0.39-2.12c0-3.51-2.85-6.36-6.36-6.36c-3.51,0-6.36,2.85-6.36,6.36
			c0,0.75,0.15,1.45,0.39,2.12H153.4l3.18-12.72h34.85l3.18,12.72H190.57z M184.61-185.07c-1.17,0-2.12-0.95-2.12-2.12
			s0.95-2.12,2.12-2.12c1.17,0,2.12,0.95,2.12,2.12S185.78-185.07,184.61-185.07 M199.38-183.47l-4.24-16.96
			c-0.23-0.95-1.08-1.61-2.06-1.61h-38.16c-0.97,0-1.82,0.66-2.06,1.61l-4.24,16.96c-0.16,0.63-0.01,1.3,0.39,1.82
			c0.4,0.51,1.02,0.82,1.67,0.82h46.64c0.65,0,1.27-0.3,1.67-0.82C199.4-182.16,199.54-182.84,199.38-183.47"/>
	</g>
	<rect x="161.29" y="-163.87" class="st0" width="25.44" height="4.24"/>
	<rect x="180.37" y="-172.35" class="st0" width="6.36" height="4.24"/>
	<rect x="171.89" y="-172.35" class="st0" width="4.24" height="4.24"/>
	<rect x="161.29" y="-172.35" class="st0" width="6.36" height="4.24"/>
	<g>
		<path class="st0" d="M148.57-163.87c-2.34,0-4.24-1.9-4.24-4.24s1.9-4.24,4.24-4.24c2.34,0,4.24,1.9,4.24,4.24
			S150.91-163.87,148.57-163.87 M148.57-176.59c-4.68,0-8.48,3.8-8.48,8.48s3.8,8.48,8.48,8.48c4.68,0,8.48-3.8,8.48-8.48
			S153.24-176.59,148.57-176.59"/>
		<path class="st0" d="M199.45-163.87c-2.34,0-4.24-1.9-4.24-4.24s1.9-4.24,4.24-4.24c2.34,0,4.24,1.9,4.24,4.24
			S201.79-163.87,199.45-163.87 M199.45-176.59c-4.68,0-8.48,3.8-8.48,8.48s3.8,8.48,8.48,8.48c4.68,0,8.48-3.8,8.48-8.48
			S204.12-176.59,199.45-176.59"/>
	</g>
	<g>
		<path class="st0" d="M491.8-134.86c-6.15,0-11.15-5-11.15-11.15c0-6.15,5-11.15,11.15-11.15c6.15,0,11.15,5,11.15,11.15
			C502.96-139.86,497.95-134.86,491.8-134.86 M478.98-181.05v16.03c0,1.16-0.95,2.11-2.11,2.11h-12.89l0.12-0.63
			C465.63-171.79,471.44-178.32,478.98-181.05 M481.51-189.89h5.31v4.93c-1.82,0-3.59,0.19-5.31,0.56V-189.89z M439.32-140.72v-2.65
			c0-0.23,0.19-0.42,0.42-0.42h8.49c0.23,0,0.42,0.19,0.42,0.42v2.65H439.32z M493.07-159.64v-7.2c0-0.7-0.57-1.27-1.27-1.27
			c-0.7,0-1.27,0.57-1.27,1.27v7.2c-6.96,0.64-12.42,6.51-12.42,13.63c0,4.6,2.28,8.67,5.77,11.15h-12.22
			c-3.21,0-6.22-1.42-8.27-3.88c-2.05-2.47-2.89-5.69-2.29-8.85l2.4-12.78h13.37c2.56,0,4.65-2.09,4.65-4.65v-16.78
			c1.72-0.41,3.5-0.62,5.32-0.62c2.04,0,3.7,1.66,3.7,3.7v6.81c0,0.7,0.57,1.27,1.27,1.27c0.7,0,1.27-0.57,1.27-1.27v-6.81
			c0-2.54-1.53-4.73-3.71-5.7v-6.73c0-0.7-0.57-1.27-1.27-1.27h-0.02v-17.05c0-5.12-4.16-9.28-9.28-9.28
			c-3.65,0-6.98,2.16-8.47,5.49l-7.21,16.14c-0.29,0.64,0,1.39,0.64,1.68c0.64,0.29,1.39,0,1.67-0.64l7.21-16.14
			c1.08-2.42,3.5-3.99,6.15-3.99c3.72,0,6.74,3.02,6.74,6.74v17.05H483v-17.05c0-2.32-1.89-4.2-4.2-4.2c-1.66,0-3.16,0.98-3.84,2.49
			l-28.97,64.85h-2.78l20.15-45.11c0.29-0.64,0-1.39-0.64-1.68c-0.64-0.29-1.39,0-1.68,0.64l-20.61,46.14h-0.68
			c-1.63,0-2.96,1.33-2.96,2.96v2.65h-4.3c-4.14,0-7.77,2.8-8.81,6.81c-0.1,0.38-0.02,0.79,0.22,1.1c0.24,0.31,0.61,0.49,1,0.49
			h19.95c0.7,0,1.27-0.57,1.27-1.27s-0.57-1.27-1.27-1.27h-18.08c1.14-2.02,3.3-3.32,5.71-3.32h21.51c1.82,0,3.4,1.23,3.86,2.98
			l0.09,0.34h-8.01c-0.7,0-1.27,0.57-1.27,1.27s0.57,1.27,1.27,1.27h9.65c0.39,0,0.76-0.18,1-0.49c0.24-0.31,0.32-0.71,0.22-1.1
			l-0.5-1.93c-0.75-2.88-3.34-4.88-6.31-4.88h-2.79v-2.65c0-1.46-1.06-2.67-2.45-2.91l28.53-63.87c0.27-0.6,0.87-0.99,1.52-0.99
			c0.92,0,1.67,0.75,1.67,1.67v17.05h-0.22c-0.7,0-1.27,0.57-1.27,1.27v7.43c-8.77,2.82-15.61,10.26-17.38,19.72l-2.99,15.96
			c-0.73,3.9,0.3,7.88,2.84,10.93c2.53,3.05,6.26,4.8,10.22,4.8h20.14c7.55,0,13.69-6.14,13.69-13.69
			C505.49-153.13,500.03-159,493.07-159.64"/>
		<path class="st0" d="M491.8-142.85c-1.74,0-3.16-1.42-3.16-3.16c0-1.74,1.42-3.16,3.16-3.16c1.74,0,3.16,1.42,3.16,3.16
			C494.96-144.27,493.55-142.85,491.8-142.85 M491.8-151.71c-3.14,0-5.7,2.56-5.7,5.7c0,3.14,2.56,5.7,5.7,5.7
			c3.14,0,5.7-2.56,5.7-5.7C497.5-149.15,494.95-151.71,491.8-151.71"/>
	</g>
	<g>
		<path class="st0" d="M353.81-166.9v4.23c0.01,0.79-0.58,1.45-1.37,1.52c-0.79,0.04-1.47-0.57-1.51-1.37c0-0.02,0-0.05,0-0.07
			v-5.75h-2.88v5.75c0,0.79-0.64,1.44-1.44,1.44c-0.79,0-1.44-0.64-1.44-1.44v-5.75h-2.88v5.75c0,0.79-0.64,1.44-1.44,1.44
			c-0.79,0-1.44-0.64-1.44-1.44v-5.75h-2.88v5.75c0,0.79-0.63,1.43-1.42,1.44h-0.02c-0.37,0-0.72-0.15-0.97-0.41
			c-0.3-0.29-0.47-0.69-0.47-1.1v-10.35c0-1.39,1.13-2.52,2.52-2.52h15.1c1.39,0,2.52,1.13,2.52,2.52L353.81-166.9z M349.49-135.26
			h-19.01l-0.72-2.88h19.73V-135.26z M324.72-135.26l-2.16-8.63h2.79l2.16,8.63H324.72z M318.97-135.26l-2.16-8.63h2.79l2.16,8.63
			H318.97z M311.92-135.26l-1.08-8.63h3l2.16,8.63H311.92z M303.65-135.26l1.08-8.63h3.21l1.08,8.63H303.65z M298.83-143.89h3
			l-1.08,8.63h-4.08L298.83-143.89z M287.33-143.89h2.79l-2.16,8.63h-2.79L287.33-143.89z M290.92-135.26l2.16-8.63h2.79l-2.16,8.63
			H290.92z M287.64-149.64h37.4v2.88h-37.4V-149.64z M304.9-214.37c0-0.79,0.64-1.44,1.44-1.44c0.8,0,1.44,0.64,1.44,1.44v61.85
			h-2.88V-214.37z M318.01-165.47h12.79v2.8c0.01,1.19,0.48,2.32,1.33,3.15c0.81,0.81,1.91,1.26,3.05,1.24
			c1.04-0.02,2.04-0.41,2.81-1.1c1.64,1.47,4.12,1.47,5.75,0c1.64,1.47,4.11,1.47,5.75,0c0.56,0.5,1.24,0.85,1.97,1l-1.83,17.36
			h-20.6l-1.12-4.49v-4.14c0-1.59-1.29-2.88-2.88-2.88h-5.67L318.01-165.47z M316.41-171.22h14.38v2.88h-14.38V-171.22z
			 M323.6-179.85c0-7.15,5.8-12.95,12.95-12.95c7.15,0,12.95,5.8,12.95,12.95v1.44h-13.3c-2.56,0-4.77,1.81-5.29,4.32h-7.3V-179.85z
			 M352.37-178.3v-1.55c0-8.74-7.08-15.82-15.82-15.82c-8.74,0-15.82,7.08-15.82,15.82v5.75h-5.75c-0.8,0-1.44,0.64-1.44,1.44v5.75
			c0,0.79,0.64,1.44,1.44,1.44h0.14l1.36,12.95h-5.82v-61.85c0-2.38-1.93-4.31-4.32-4.31s-4.32,1.93-4.32,4.31v61.85h-14.38
			c-1.59,0-2.88,1.29-2.88,2.88v4.14l-2.83,11.34c-0.19,0.77,0.28,1.55,1.05,1.74c0.11,0.03,0.23,0.04,0.35,0.04h67.6
			c0.79,0,1.44-0.64,1.44-1.44v-5.68l2.03-19.29c1.42-0.78,2.29-2.27,2.28-3.88v-10.35C356.68-175.58,354.88-177.79,352.37-178.3"/>
	</g>
	<rect x="343.74" y="-151.08" class="st0" width="2.88" height="7.19"/>
	<rect x="343.74" y="-156.84" class="st0" width="2.88" height="2.88"/>
	<g>
		<path class="st0" d="M291.96-181.01c0.71,1.01,1.59,1.89,2.59,2.6c-1.01,0.71-1.89,1.59-2.59,2.6c-0.71-1.01-1.59-1.89-2.6-2.6
			C290.37-179.12,291.25-180,291.96-181.01 M290.59-172.2c0.25,0.75,1.07,1.16,1.82,0.91c0.43-0.14,0.77-0.48,0.91-0.91
			c0.77-2.28,2.56-4.08,4.84-4.84c0.75-0.25,1.16-1.07,0.91-1.82c-0.14-0.43-0.48-0.77-0.91-0.91c-2.28-0.77-4.08-2.56-4.84-4.84
			c-0.25-0.75-1.07-1.16-1.82-0.91c-0.43,0.14-0.77,0.48-0.91,0.91c-0.77,2.28-2.56,4.08-4.84,4.84c-0.75,0.25-1.16,1.07-0.91,1.82
			c0.14,0.43,0.48,0.77,0.91,0.91C288.03-176.28,289.82-174.49,290.59-172.2"/>
		<path class="st0" d="M355.25-193.08c-0.71-1.01-1.59-1.89-2.6-2.6c1.01-0.71,1.89-1.59,2.6-2.6c0.71,1.01,1.59,1.89,2.59,2.6
			C356.83-194.96,355.95-194.09,355.25-193.08 M361.45-197.04c-2.28-0.77-4.08-2.56-4.84-4.84c-0.25-0.75-1.07-1.16-1.82-0.91
			c-0.43,0.14-0.77,0.48-0.91,0.91c-0.77,2.28-2.56,4.08-4.84,4.84c-0.75,0.25-1.16,1.07-0.91,1.82c0.14,0.43,0.48,0.77,0.91,0.91
			c2.28,0.77,4.08,2.56,4.84,4.84c0.25,0.75,1.07,1.16,1.82,0.91c0.43-0.14,0.77-0.48,0.91-0.91c0.77-2.28,2.56-4.08,4.84-4.84
			c0.75-0.25,1.16-1.07,0.91-1.82C362.22-196.56,361.88-196.89,361.45-197.04"/>
		<path class="st0" d="M283.33-163.75c0.71,1.01,1.59,1.89,2.59,2.6c-1.01,0.71-1.89,1.59-2.59,2.6c-0.71-1.01-1.59-1.89-2.6-2.6
			C281.74-161.86,282.62-162.74,283.33-163.75 M283.33-153.96c0.62,0,1.17-0.4,1.36-0.98c0.77-2.28,2.56-4.08,4.84-4.84
			c0.75-0.25,1.16-1.07,0.91-1.82c-0.14-0.43-0.48-0.77-0.91-0.91c-2.28-0.77-4.08-2.56-4.84-4.84c-0.25-0.75-1.07-1.16-1.82-0.91
			c-0.43,0.14-0.77,0.48-0.91,0.91c-0.77,2.28-2.56,4.08-4.84,4.84c-0.75,0.25-1.16,1.07-0.91,1.82c0.14,0.43,0.48,0.77,0.91,0.91
			c2.28,0.77,4.08,2.56,4.84,4.84C282.16-154.35,282.71-153.96,283.33-153.96"/>
	</g>
	<g>
		<path class="st0" d="M640.41-142.18h-61.14c-0.77,0-1.39-0.62-1.39-1.39v-54.19h63.92v54.19
			C641.8-142.81,641.18-142.18,640.41-142.18 M637.63-136.63h-55.58v-2.78h55.58V-136.63z M582.05-214.44h55.58
			c2.3,0,4.17,1.87,4.17,4.17v9.73h-63.92v-9.73C577.88-212.58,579.75-214.44,582.05-214.44 M637.63-217.22h-55.58
			c-3.83,0-6.94,3.11-6.95,6.95v66.7c0,2.3,1.87,4.17,4.17,4.17v4.17c0,0.77,0.62,1.39,1.39,1.39h58.36c0.77,0,1.39-0.62,1.39-1.39
			v-4.17c2.3,0,4.17-1.87,4.17-4.17v-66.7C644.58-214.11,641.47-217.22,637.63-217.22"/>
		<path class="st0" d="M583.44-208.88h13.9v2.78h-13.9V-208.88z M582.05-203.33h16.67c0.77,0,1.39-0.62,1.39-1.39v-5.56
			c0-0.77-0.62-1.39-1.39-1.39h-16.67c-0.77,0-1.39,0.62-1.39,1.39v5.56C580.66-203.95,581.28-203.33,582.05-203.33"/>
		<path class="st0" d="M607.06-208.88c0.77,0,1.39,0.62,1.39,1.39c0,0.77-0.62,1.39-1.39,1.39c-0.77,0-1.39-0.62-1.39-1.39
			C605.67-208.26,606.3-208.88,607.06-208.88 M607.06-203.33c2.3,0,4.17-1.87,4.17-4.17c0-2.3-1.87-4.17-4.17-4.17
			c-2.3,0-4.17,1.87-4.17,4.17C602.9-205.19,604.76-203.33,607.06-203.33"/>
		<path class="st0" d="M618.18-208.88c0.77,0,1.39,0.62,1.39,1.39c0,0.77-0.62,1.39-1.39,1.39c-0.77,0-1.39-0.62-1.39-1.39
			C616.79-208.26,617.41-208.88,618.18-208.88 M618.18-203.33c2.3,0,4.17-1.87,4.17-4.17c0-2.3-1.87-4.17-4.17-4.17
			c-2.3,0-4.17,1.87-4.17,4.17C614.01-205.19,615.88-203.33,618.18-203.33"/>
		<path class="st0" d="M626.52-206.11h2.78c0.77,0,1.39-0.62,1.39-1.39c0-0.77-0.62-1.39-1.39-1.39h-2.78
			c-0.77,0-1.39,0.62-1.39,1.39C625.13-206.73,625.75-206.11,626.52-206.11"/>
		<path class="st0" d="M634.86-206.11h2.78c0.77,0,1.39-0.62,1.39-1.39c0-0.77-0.62-1.39-1.39-1.39h-2.78
			c-0.77,0-1.39,0.62-1.39,1.39C633.47-206.73,634.09-206.11,634.86-206.11"/>
		<path class="st0" d="M609.84-150.52c-10.74,0-19.45-8.71-19.45-19.46c0-10.74,8.71-19.45,19.45-19.45
			c10.74,0,19.45,8.71,19.45,19.45C629.29-159.24,620.58-150.53,609.84-150.52 M609.84-192.21c-12.28,0-22.23,9.95-22.23,22.23
			c0,12.28,9.95,22.23,22.23,22.23c12.28,0,22.23-9.95,22.23-22.23C632.06-182.25,622.12-192.19,609.84-192.21"/>
		<path class="st0" d="M609.84-154.69c-5.6,0-10.75-3.07-13.43-7.99c2.99-1.02,6.11-1.6,9.26-1.74c1.73-0.05,3.44,0.39,4.94,1.25
			c1.89,1.05,4.02,1.58,6.18,1.53c2.33,0.01,4.64-0.52,6.73-1.55C620.95-157.99,615.65-154.7,609.84-154.69 M609.84-185.26
			c8.42-0.02,15.27,6.79,15.29,15.21c0,1.14-0.12,2.27-0.37,3.38c-0.72,0.24-1.44,0.52-2.13,0.83c-1.8,0.94-3.81,1.42-5.84,1.42
			c-1.73,0.05-3.44-0.39-4.94-1.25c-1.89-1.05-4.02-1.58-6.18-1.53c-3.53,0.14-7.02,0.8-10.36,1.95
			c-2.62-8.01,1.75-16.63,9.77-19.25C606.62-185.01,608.23-185.26,609.84-185.26 M609.84-188.04c-9.97-0.01-18.06,8.06-18.07,18.03
			c0,2.36,0.46,4.7,1.36,6.89c0.01,0.03,0,0.06,0.01,0.08c0.01,0.03,0.04,0.05,0.05,0.09c3.87,9.19,14.45,13.5,23.64,9.63
			c5.14-2.17,8.99-6.59,10.43-11.98c0.01-0.02,0.01-0.05,0.02-0.07c2.58-9.6-3.11-19.47-12.71-22.05
			C613.04-187.84,611.44-188.05,609.84-188.04"/>
	</g>
</g>
<g>
	<path class="st0" d="M74.59,52.73H10.27v-4.28h64.32V52.73z M74.59,72.37H10.27V57h64.32V72.37z M40.81,44.19h-9.18v-4.28h9.18
		V44.19z M22.09,21.09h28.26v14.55H22.09V21.09z M52.49,11.19c4.28,0,7.77,3.48,7.77,7.76c0,3.54-2.38,6.53-5.63,7.46v-9.6h-9.6
		C45.95,13.58,48.95,11.19,52.49,11.19 M62.77,39.62v4.57H45.08v-4.28h9.54v-8.91C59.15,31.26,62.77,35.02,62.77,39.62 M67.04,44.19
		v-4.57c0-4.94-2.79-9.23-6.87-11.4c2.66-2.21,4.36-5.54,4.36-9.26c0-6.64-5.4-12.03-12.03-12.03c-5.91,0-10.83,4.28-11.84,9.9
		H17.82v23.09h9.54v4.28H6v32.45h72.86V44.19H67.04z"/>
</g>
</svg>
