<?xml version="1.0" encoding="utf-8"?>
<!-- Generator: Adobe Illustrator 24.0.1, SVG Export Plug-In . SVG Version: 6.00 Build 0)  -->
<svg version="1.1" id="Layer_1" xmlns="http://www.w3.org/2000/svg" xmlns:xlink="http://www.w3.org/1999/xlink" x="0px" y="0px"
	 viewBox="0 0 85.04 85.04" style="enable-background:new 0 0 85.04 85.04;" xml:space="preserve">
<style type="text/css">
	.st0{fill:#FFFFFF;}
</style>
<g>
	<g>
		<path class="st0" d="M93.68-94.31c-6.15,0-11.15-5-11.15-11.15c0-6.15,5-11.15,11.15-11.15c6.15,0,11.15,5,11.15,11.15
			C104.83-99.32,99.83-94.31,93.68-94.31 M80.85-140.5v16.03c0,1.16-0.95,2.11-2.11,2.11H65.84l0.12-0.63
			C67.51-131.24,73.32-137.78,80.85-140.5 M83.39-149.34h5.31v4.93c-1.82,0-3.59,0.19-5.31,0.56V-149.34z M41.2-100.18v-2.65
			c0-0.23,0.19-0.42,0.42-0.42h8.49c0.23,0,0.42,0.19,0.42,0.42v2.65H41.2z M94.95-119.1v-7.2c0-0.7-0.57-1.27-1.27-1.27
			c-0.7,0-1.27,0.57-1.27,1.27v7.2c-6.96,0.64-12.42,6.51-12.42,13.63c0,4.6,2.28,8.67,5.77,11.15H73.54
			c-3.21,0-6.22-1.42-8.27-3.88c-2.05-2.47-2.89-5.69-2.29-8.85l2.4-12.78h13.37c2.56,0,4.65-2.09,4.65-4.65v-16.78
			c1.72-0.41,3.5-0.62,5.32-0.62c2.04,0,3.7,1.66,3.7,3.7v6.81c0,0.7,0.57,1.27,1.27,1.27c0.7,0,1.27-0.57,1.27-1.27v-6.81
			c0-2.54-1.53-4.73-3.71-5.7v-6.73c0-0.7-0.57-1.27-1.27-1.27h-0.02v-17.05c0-5.12-4.16-9.28-9.28-9.28
			c-3.65,0-6.98,2.16-8.47,5.49l-7.21,16.14c-0.29,0.64,0,1.39,0.64,1.68c0.64,0.29,1.39,0,1.67-0.64l7.21-16.14
			c1.08-2.43,3.5-3.99,6.15-3.99c3.72,0,6.74,3.02,6.74,6.74v17.05h-2.54v-17.05c0-2.32-1.89-4.2-4.2-4.2
			c-1.66,0-3.16,0.98-3.84,2.49l-28.97,64.85h-2.78l20.15-45.11c0.29-0.64,0-1.39-0.64-1.68c-0.64-0.29-1.39,0-1.68,0.64
			L42.3-105.79h-0.68c-1.63,0-2.96,1.33-2.96,2.96v2.65h-4.3c-4.14,0-7.77,2.8-8.81,6.81c-0.1,0.38-0.02,0.79,0.22,1.1
			c0.24,0.31,0.61,0.49,1,0.49h19.95c0.7,0,1.27-0.57,1.27-1.27c0-0.7-0.57-1.27-1.27-1.27H28.65c1.14-2.02,3.3-3.33,5.71-3.33
			h21.51c1.82,0,3.4,1.23,3.86,2.98l0.09,0.34H51.8c-0.7,0-1.27,0.57-1.27,1.27c0,0.7,0.57,1.27,1.27,1.27h9.65
			c0.39,0,0.76-0.18,1-0.49c0.24-0.31,0.32-0.72,0.22-1.1l-0.5-1.93c-0.75-2.88-3.34-4.88-6.31-4.88h-2.79v-2.65
			c0-1.46-1.06-2.67-2.45-2.91l28.53-63.86c0.27-0.6,0.87-0.99,1.52-0.99c0.92,0,1.67,0.75,1.67,1.67v17.05h-0.22
			c-0.7,0-1.27,0.57-1.27,1.27v7.43c-8.77,2.82-15.61,10.26-17.38,19.72l-2.99,15.96c-0.73,3.9,0.3,7.88,2.84,10.93
			c2.53,3.05,6.26,4.8,10.22,4.8h20.14c7.55,0,13.69-6.14,13.69-13.69C107.37-112.59,101.9-118.45,94.95-119.1"/>
		<path class="st0" d="M93.68-102.31c-1.74,0-3.16-1.42-3.16-3.16c0-1.74,1.42-3.16,3.16-3.16c1.74,0,3.16,1.42,3.16,3.16
			C96.84-103.72,95.42-102.31,93.68-102.31 M93.68-111.16c-3.14,0-5.7,2.56-5.7,5.7c0,3.14,2.56,5.7,5.7,5.7
			c3.14,0,5.7-2.56,5.7-5.7C99.38-108.61,96.82-111.16,93.68-111.16"/>
	</g>
	<g>
		<path class="st0" d="M242.29-101.64h-61.14c-0.77,0-1.39-0.62-1.39-1.39v-54.19h63.92v54.19
			C243.68-102.26,243.06-101.64,242.29-101.64 M239.51-96.08h-55.58v-2.78h55.58V-96.08z M183.93-173.9h55.58
			c2.3,0,4.17,1.87,4.17,4.17v9.73h-63.92v-9.73C179.76-172.03,181.62-173.9,183.93-173.9 M239.51-176.68h-55.58
			c-3.83,0-6.94,3.11-6.95,6.95v66.7c0,2.3,1.87,4.17,4.17,4.17v4.17c0,0.77,0.62,1.39,1.39,1.39h58.36c0.77,0,1.39-0.62,1.39-1.39
			v-4.17c2.3,0,4.17-1.87,4.17-4.17v-66.7C246.45-173.57,243.35-176.67,239.51-176.68"/>
		<path class="st0" d="M185.31-168.34h13.9v2.78h-13.9V-168.34z M183.93-162.78h16.67c0.77,0,1.39-0.62,1.39-1.39v-5.56
			c0-0.77-0.62-1.39-1.39-1.39h-16.67c-0.77,0-1.39,0.62-1.39,1.39v5.56C182.54-163.4,183.16-162.78,183.93-162.78"/>
		<path class="st0" d="M208.94-168.34c0.77,0,1.39,0.62,1.39,1.39c0,0.77-0.62,1.39-1.39,1.39c-0.77,0-1.39-0.62-1.39-1.39
			C207.55-167.72,208.17-168.34,208.94-168.34 M208.94-162.78c2.3,0,4.17-1.87,4.17-4.17c0-2.3-1.87-4.17-4.17-4.17
			c-2.3,0-4.17,1.87-4.17,4.17C204.77-164.65,206.64-162.78,208.94-162.78"/>
		<path class="st0" d="M220.05-168.34c0.77,0,1.39,0.62,1.39,1.39c0,0.77-0.62,1.39-1.39,1.39c-0.77,0-1.39-0.62-1.39-1.39
			C218.67-167.72,219.29-168.34,220.05-168.34 M220.05-162.78c2.3,0,4.17-1.87,4.17-4.17c0-2.3-1.87-4.17-4.17-4.17
			c-2.3,0-4.17,1.87-4.17,4.17C215.89-164.65,217.75-162.78,220.05-162.78"/>
		<path class="st0" d="M228.39-165.56h2.78c0.77,0,1.39-0.62,1.39-1.39c0-0.77-0.62-1.39-1.39-1.39h-2.78
			c-0.77,0-1.39,0.62-1.39,1.39C227-166.18,227.62-165.56,228.39-165.56"/>
		<path class="st0" d="M236.73-165.56h2.78c0.77,0,1.39-0.62,1.39-1.39c0-0.77-0.62-1.39-1.39-1.39h-2.78
			c-0.77,0-1.39,0.62-1.39,1.39C235.34-166.18,235.96-165.56,236.73-165.56"/>
		<path class="st0" d="M211.72-109.98c-10.74,0-19.45-8.71-19.45-19.46c0-10.74,8.71-19.45,19.45-19.45
			c10.74,0,19.45,8.71,19.45,19.45C231.16-118.69,222.46-109.99,211.72-109.98 M211.72-151.66c-12.28,0-22.23,9.95-22.23,22.23
			c0,12.28,9.95,22.23,22.23,22.23c12.28,0,22.23-9.95,22.23-22.23C233.94-141.7,223.99-151.65,211.72-151.66"/>
		<path class="st0" d="M211.72-114.15c-5.6,0-10.75-3.07-13.43-7.99c2.99-1.02,6.11-1.6,9.26-1.74c1.73-0.05,3.44,0.39,4.94,1.25
			c1.89,1.05,4.02,1.58,6.18,1.53c2.33,0.01,4.64-0.52,6.73-1.55C222.82-117.45,217.52-114.15,211.72-114.15 M211.72-144.72
			c8.42-0.02,15.27,6.79,15.29,15.21c0,1.14-0.12,2.27-0.37,3.38c-0.72,0.24-1.44,0.52-2.13,0.83c-1.8,0.94-3.81,1.42-5.84,1.42
			c-1.73,0.05-3.44-0.39-4.94-1.25c-1.89-1.05-4.02-1.58-6.18-1.53c-3.53,0.14-7.02,0.8-10.36,1.94
			c-2.62-8.02,1.75-16.64,9.77-19.25C208.49-144.46,210.1-144.72,211.72-144.72 M211.72-147.5c-9.97-0.01-18.06,8.06-18.07,18.03
			c0,2.36,0.46,4.7,1.36,6.89c0.01,0.03,0,0.06,0.01,0.08c0.01,0.03,0.04,0.05,0.05,0.09c3.87,9.19,14.45,13.5,23.64,9.63
			c5.14-2.17,8.99-6.59,10.43-11.98c0.01-0.02,0.01-0.05,0.02-0.07c2.58-9.6-3.11-19.47-12.71-22.05
			C214.91-147.29,213.32-147.5,211.72-147.5"/>
	</g>
</g>
<g>
	<path class="st0" d="M73.98,49.53v3.87c0.01,0.72-0.53,1.33-1.25,1.39c-0.73,0.04-1.34-0.52-1.38-1.25c0-0.02,0-0.04,0-0.06v-5.26
		h-2.63v5.26c0,0.73-0.59,1.32-1.32,1.32c-0.73,0-1.32-0.59-1.32-1.32v-5.26h-2.63v5.26c0,0.73-0.59,1.32-1.32,1.32
		c-0.73,0-1.32-0.59-1.32-1.32v-5.26h-2.63v5.26c0,0.72-0.58,1.3-1.3,1.32h-0.02c-0.33,0-0.65-0.14-0.89-0.38
		c-0.27-0.27-0.43-0.63-0.43-1.01v-9.47c0-1.27,1.03-2.3,2.3-2.3h13.81c1.27,0,2.3,1.03,2.3,2.3L73.98,49.53z M70.03,78.48H52.64
		l-0.66-2.63h18.05V78.48z M47.38,78.48l-1.97-7.89h2.55l1.97,7.89H47.38z M42.11,78.48l-1.97-7.89h2.55l1.97,7.89H42.11z
		 M35.67,78.48l-0.99-7.89h2.75l1.97,7.89H35.67z M28.1,78.48l0.99-7.89h2.94l0.99,7.89H28.1z M23.69,70.58h2.74l-0.99,7.89h-3.73
		L23.69,70.58z M13.17,70.58h2.55l-1.97,7.89h-2.55L13.17,70.58z M16.46,78.48l1.97-7.89h2.55l-1.97,7.89H16.46z M13.46,65.32h34.21
		v2.63H13.46V65.32z M29.24,6.12c0-0.73,0.59-1.32,1.32-1.32c0.73,0,1.32,0.59,1.32,1.32v56.57h-2.63V6.12z M41.23,50.85h11.69v2.56
		c0,1.08,0.44,2.12,1.21,2.88c0.74,0.74,1.75,1.15,2.79,1.14c0.95-0.02,1.86-0.38,2.57-1.01c1.5,1.34,3.77,1.34,5.26,0
		c1.5,1.34,3.76,1.34,5.26,0c0.51,0.46,1.13,0.77,1.8,0.92l-1.67,15.88H51.32l-1.03-4.11v-3.78c0-1.45-1.18-2.63-2.63-2.63h-5.19
		L41.23,50.85z M39.77,45.59h13.16v2.63H39.77V45.59z M46.35,37.69c0-6.54,5.3-11.84,11.84-11.84c6.54,0,11.84,5.3,11.84,11.84v1.32
		H57.86c-2.34,0-4.36,1.65-4.83,3.95h-6.68V37.69z M72.66,39.11v-1.41c0-7.99-6.48-14.47-14.47-14.47
		c-7.99,0-14.47,6.48-14.47,14.47v5.26h-5.26c-0.73,0-1.32,0.59-1.32,1.32v5.26c0,0.73,0.59,1.32,1.32,1.32h0.13l1.25,11.84h-5.33
		V6.12c0-2.18-1.77-3.95-3.95-3.95s-3.95,1.77-3.95,3.95v56.57H13.46c-1.45,0-2.63,1.18-2.63,2.63v3.78L8.23,79.47
		c-0.18,0.7,0.25,1.42,0.96,1.6c0.1,0.03,0.21,0.04,0.32,0.04h61.84c0.73,0,1.32-0.59,1.32-1.32V74.6l1.86-17.64
		c1.3-0.71,2.1-2.07,2.09-3.55v-9.46C76.61,41.6,74.96,39.58,72.66,39.11"/>
</g>
<rect x="64.77" y="64.01" class="st0" width="2.63" height="6.58"/>
<rect x="64.77" y="58.74" class="st0" width="2.63" height="2.63"/>
<g>
	<path class="st0" d="M17.4,36.63c0.65,0.92,1.45,1.73,2.37,2.37c-0.92,0.65-1.73,1.45-2.37,2.37c-0.65-0.92-1.45-1.73-2.37-2.37
		C15.95,38.36,16.76,37.56,17.4,36.63 M16.16,44.69c0.23,0.69,0.98,1.06,1.66,0.83c0.39-0.13,0.7-0.44,0.83-0.83
		c0.7-2.09,2.34-3.73,4.43-4.43c0.69-0.23,1.06-0.97,0.83-1.66c-0.13-0.39-0.44-0.7-0.83-0.83c-2.09-0.7-3.73-2.34-4.43-4.43
		c-0.23-0.69-0.98-1.06-1.66-0.83c-0.39,0.13-0.7,0.44-0.83,0.83c-0.7,2.09-2.34,3.73-4.43,4.43c-0.69,0.23-1.06,0.97-0.83,1.66
		c0.13,0.39,0.44,0.7,0.83,0.83C13.81,40.96,15.45,42.6,16.16,44.69"/>
	<path class="st0" d="M75.29,25.59c-0.65-0.92-1.45-1.73-2.37-2.37c0.92-0.65,1.73-1.45,2.37-2.37c0.65,0.92,1.45,1.73,2.37,2.37
		C76.74,23.87,75.94,24.67,75.29,25.59 M80.97,21.97c-2.09-0.7-3.73-2.34-4.43-4.43c-0.23-0.69-0.98-1.06-1.66-0.83
		c-0.39,0.13-0.7,0.44-0.83,0.83c-0.7,2.09-2.34,3.73-4.43,4.43c-0.69,0.23-1.06,0.98-0.83,1.66c0.13,0.39,0.44,0.7,0.83,0.83
		c2.09,0.7,3.73,2.34,4.43,4.43c0.23,0.69,0.98,1.06,1.66,0.83c0.39-0.13,0.7-0.44,0.83-0.83c0.7-2.09,2.34-3.73,4.43-4.43
		c0.69-0.23,1.06-0.97,0.83-1.66C81.67,22.41,81.36,22.1,80.97,21.97"/>
	<path class="st0" d="M9.51,52.42c0.65,0.92,1.45,1.73,2.37,2.37c-0.92,0.65-1.73,1.45-2.37,2.37c-0.65-0.92-1.45-1.73-2.37-2.37
		C8.06,54.15,8.86,53.35,9.51,52.42 M9.51,61.37c0.57,0,1.07-0.36,1.25-0.9c0.7-2.09,2.34-3.73,4.43-4.43
		c0.69-0.23,1.06-0.98,0.83-1.66c-0.13-0.39-0.44-0.7-0.83-0.83c-2.09-0.7-3.73-2.34-4.43-4.43c-0.23-0.69-0.98-1.06-1.66-0.83
		c-0.39,0.13-0.7,0.44-0.83,0.83c-0.7,2.09-2.34,3.73-4.43,4.43C3.14,53.78,2.77,54.52,3,55.21c0.13,0.39,0.44,0.7,0.83,0.83
		c2.09,0.7,3.73,2.34,4.43,4.43C8.44,61.01,8.94,61.37,9.51,61.37"/>
</g>
</svg>
