<?xml version="1.0" encoding="utf-8"?>
<!-- Generator: Adobe Illustrator 24.0.1, SVG Export Plug-In . SVG Version: 6.00 Build 0)  -->
<svg version="1.1" id="Capa_1" xmlns="http://www.w3.org/2000/svg" xmlns:xlink="http://www.w3.org/1999/xlink" x="0px" y="0px"
	 viewBox="0 0 512 512" style="enable-background:new 0 0 512 512;" xml:space="preserve">
<style type="text/css">
	.st0{fill:#FFFFFF;}
</style>
<g id="XMLID_2112_">
	<g id="XMLID_428_">
		<path id="XMLID_760_" class="st0" d="M430,280c0-16.6-4-33-11.5-47.8l17.2-17.2c12.8-12.8,12.8-33.8,0-46.7
			c-6.4-6.4-14.9-9.6-23.3-9.6c0-8.8-3.4-17.1-9.7-23.3c-6.4-6.4-14.9-9.6-23.3-9.6c0-8.5-3.2-16.9-9.6-23.3
			c-6.2-6.2-14.5-9.6-23.3-9.7c0-8.8-3.4-17.1-9.7-23.3c-6.2-6.2-14.6-9.7-23.3-9.7c-8.7,0-17.1,3.4-23.3,9.7l-34,34.1l-18.9-18.9
			c-6.2-6.2-14.6-9.7-23.3-9.7c-8.8,0-17.1,3.4-23.3,9.7c-6.2,6.2-9.6,14.5-9.7,23.3c-8.5,0-16.9,3.2-23.3,9.6
			c-6.2,6.2-9.6,14.5-9.7,23.3c-8.8,0-17.1,3.4-23.3,9.7c-10.6,10.6-12.4,26.7-5.5,39.4c-4.8,1.6-9.2,4.2-13,8
			c-12.8,12.9-12.8,33.8,0,46.7l13.8,13.8l-109.7,109c-3.8,3.8-3.8,9.9,0,13.7c1.9,1.9,4.4,2.8,6.9,2.8s5-1,6.9-2.8l74.1-74.1
			l69.4,69.4L56.4,487.7c-3.8,3.8-3.8,9.9,0,13.7c1.9,1.9,4.4,2.8,6.9,2.8s5-1,6.9-2.8l150.1-150.1c2.7-2.7,5.9-5.1,9.3-6.7
			l23.5,15.5c15.5,10.2,34.5,14.3,52.8,11.3L436.7,502c1.9,1.9,4.4,2.8,6.9,2.8s5-1,6.9-2.8c3.8-3.8,3.8-9.9,0-13.7l-75.8-75.8
			l9.1-9.1c3.8-3.8,3.8-9.9,0-13.7c-3.8-3.8-9.9-3.8-13.7,0l-9.1,9.1l-21.5-21.5l80.2-80.2l21.5,21.5l-9.1,9.1
			c-3.8,3.8-3.8,9.9,0,13.7c1.9,1.9,4.4,2.8,6.9,2.8s5-1,6.9-2.8l9.1-9.1l33.4,33.4c1.9,1.9,4.4,2.8,6.9,2.8s5-1,6.9-2.8
			c3.8-3.8,3.8-9.9,0-13.7L430,280z M303.8,83.1c2.5-2.5,6-4,9.6-4s7,1.5,9.6,4c2.5,2.5,4,6,4,9.6s-1.5,7-4,9.6l-21.4,21.4
			c-3.8,3.8-3.8,9.9,0,13.7s9.9,3.8,13.7,0l21.4-21.4c2.5-2.5,6-4,9.6-4s7,1.5,9.6,4c5.3,5.3,5.3,13.9,0,19.2L323.3,168
			c-3.8,3.8-3.8,9.9,0,13.7c1.9,1.9,4.4,2.8,6.9,2.8s5-1,6.9-2.8l32.7-32.7c2.5-2.5,6-4,9.6-4s7,1.5,9.6,4c2.5,2.5,4,6,4,9.6
			s-1.5,7-4,9.6l-32.7,32.7c-3.8,3.8-3.8,9.9,0,13.7c1.9,1.9,4.4,2.8,6.9,2.8s5-1,6.9-2.8l32.7-32.7c5.3-5.3,13.9-5.3,19.2,0
			c5.3,5.3,5.3,13.9,0,19.2l-80.4,80.4c-25.8,25.8-59.9,39.8-96.3,39.8c-9.8,0-19.3,2.6-27.6,7.5l-56.3-56.3
			c4.4-1.7,8.3-4.2,11.7-7.6c6.2-6.2,9.6-14.5,9.7-23.3c8.5,0,16.9-3.2,23.3-9.6c6.4-6.4,9.6-14.9,9.6-23.3c8.8,0,17.1-3.4,23.3-9.7
			c6.4-6.4,9.6-14.9,9.6-23.3c8.8,0,17.1-3.4,23.3-9.7c6.2-6.2,9.7-14.6,9.7-23.3c0-8.8-3.4-17.1-9.7-23.3l-2.3-2.3L303.8,83.1z
			 M204.1,98.2c2.5-2.5,6-4,9.6-4s7,1.5,9.6,4l35,35c2.5,2.5,4,6,4,9.6s-1.5,7-4,9.6c-2.5,2.5-6,4-9.6,4s-7-1.5-9.6-4l0,0l-35-35
			c-2.5-2.5-4-6-4-9.6C200.1,104.2,201.5,100.8,204.1,98.2L204.1,98.2z M171.2,131.2c2.6-2.6,6.1-4,9.6-4s7,1.4,9.6,4l35,35
			c5.3,5.3,5.3,13.9,0,19.2c-2.5,2.5-6,4-9.6,4s-7-1.5-9.6-4l0,0l-35-35c-2.5-2.5-4-6-4-9.6C167.2,137.2,168.5,133.7,171.2,131.2
			L171.2,131.2z M138.1,164.2c2.5-2.5,6-4,9.6-4s7,1.5,9.6,4l35,35c5.3,5.3,5.3,13.9,0,19.2s-13.9,5.3-19.2,0l-35-35
			C132.9,178.1,132.9,169.4,138.1,164.2L138.1,164.2z M119.6,211.5c2.6-2.6,6.1-4,9.6-4s7,1.4,9.6,4l20.6,20.6c2.5,2.5,4,6,4,9.6
			s-1.5,7-4,9.6c-2.5,2.5-6,4-9.6,4s-7-1.5-9.6-4l0,0l-20.6-20.6C114.3,225.4,114.3,216.7,119.6,211.5L119.6,211.5z M111.9,293.4
			l21.5-21.5l69.4,69.4l-21.5,21.5L111.9,293.4z M316.1,353.9c-2.4-2.4-5.8-3.4-9.1-2.5c-14.7,3.5-30.4,0.8-43.1-7.5l-5.2-3.5
			c36.5-3.1,70.5-18.8,96.7-45l48.5-48.5c4.2,10.1,6.4,20.9,6.6,31.8l-84.8,84.8L316.1,353.9z"/>
		<path id="XMLID_805_" class="st0" d="M400.9,358.5c-1.8,1.8-2.8,4.3-2.8,6.9c0,2.5,1.1,5.1,2.8,6.9c1.8,1.8,4.3,2.8,6.9,2.8
			c2.5,0,5.1-1.1,6.9-2.8c1.8-1.8,2.8-4.3,2.8-6.9c0-2.5-1.1-5.1-2.8-6.9c-1.8-1.8-4.3-2.8-6.9-2.8
			C405.2,355.7,402.7,356.8,400.9,358.5z"/>
		<path id="XMLID_809_" class="st0" d="M72.9,86.6c1.9,1.9,4.4,2.8,6.9,2.8s5-1,6.9-2.8c3.8-3.8,3.8-9.9,0-13.7L40.8,27.1
			c-3.8-3.8-9.9-3.8-13.7,0s-3.8,9.9,0,13.7L72.9,86.6z"/>
		<path id="XMLID_858_" class="st0" d="M125.8,60.2c5.3,0,9.7-4.4,9.7-9.7V16.9c0-5.3-4.4-9.7-9.7-9.7s-9.7,4.4-9.7,9.7v33.5
			C116.1,55.8,120.4,60.2,125.8,60.2z"/>
		<path id="XMLID_1014_" class="st0" d="M16.9,135.5h33.5c5.3,0,9.7-4.4,9.7-9.7c0-5.3-4.4-9.7-9.7-9.7H16.9c-5.3,0-9.7,4.4-9.7,9.7
			C7.2,131.1,11.6,135.5,16.9,135.5z"/>
		<path id="XMLID_1020_" class="st0" d="M432.3,89.4c2.5,0,5-1,6.9-2.8L485,40.8c3.8-3.8,3.8-9.9,0-13.7s-9.9-3.8-13.7,0l-45.8,45.8
			c-3.8,3.8-3.8,9.9,0,13.7C427.2,88.6,429.8,89.4,432.3,89.4z"/>
		<path id="XMLID_1029_" class="st0" d="M386.2,60.2c5.3,0,9.7-4.4,9.7-9.7V16.9c0-5.3-4.4-9.7-9.7-9.7s-9.7,4.4-9.7,9.7v33.5
			C376.5,55.8,380.9,60.2,386.2,60.2z"/>
		<path id="XMLID_1030_" class="st0" d="M451.8,125.8c0,5.3,4.4,9.7,9.7,9.7H495c5.3,0,9.7-4.4,9.7-9.7c0-5.3-4.4-9.7-9.7-9.7h-33.5
			C456.2,116.1,451.8,120.4,451.8,125.8z"/>
	</g>
</g>
</svg>
