<?xml version="1.0" encoding="utf-8"?>
<!-- Generator: Adobe Illustrator 24.0.1, SVG Export Plug-In . SVG Version: 6.00 Build 0)  -->
<svg version="1.1" id="Layer_1" xmlns="http://www.w3.org/2000/svg" xmlns:xlink="http://www.w3.org/1999/xlink" x="0px" y="0px"
	 viewBox="0 0 85.04 85.04" style="enable-background:new 0 0 85.04 85.04;" xml:space="preserve">
<style type="text/css">
	.st0{fill:#FFFFFF;}
</style>
<g>
	<g>
		<path class="st0" d="M242.29-101.64h-61.14c-0.77,0-1.39-0.62-1.39-1.39v-54.19h63.92v54.19
			C243.68-102.26,243.06-101.64,242.29-101.64 M239.51-96.08h-55.58v-2.78h55.58V-96.08z M183.93-173.9h55.58
			c2.3,0,4.17,1.87,4.17,4.17v9.73h-63.92v-9.73C179.76-172.03,181.62-173.9,183.93-173.9 M239.51-176.68h-55.58
			c-3.83,0-6.94,3.11-6.95,6.95v66.7c0,2.3,1.87,4.17,4.17,4.17v4.17c0,0.77,0.62,1.39,1.39,1.39h58.36c0.77,0,1.39-0.62,1.39-1.39
			v-4.17c2.3,0,4.17-1.87,4.17-4.17v-66.7C246.45-173.57,243.35-176.67,239.51-176.68"/>
		<path class="st0" d="M185.31-168.34h13.9v2.78h-13.9V-168.34z M183.93-162.78h16.67c0.77,0,1.39-0.62,1.39-1.39v-5.56
			c0-0.77-0.62-1.39-1.39-1.39h-16.67c-0.77,0-1.39,0.62-1.39,1.39v5.56C182.54-163.4,183.16-162.78,183.93-162.78"/>
		<path class="st0" d="M208.94-168.34c0.77,0,1.39,0.62,1.39,1.39c0,0.77-0.62,1.39-1.39,1.39c-0.77,0-1.39-0.62-1.39-1.39
			C207.55-167.72,208.17-168.34,208.94-168.34 M208.94-162.78c2.3,0,4.17-1.87,4.17-4.17c0-2.3-1.87-4.17-4.17-4.17
			c-2.3,0-4.17,1.87-4.17,4.17C204.77-164.65,206.64-162.78,208.94-162.78"/>
		<path class="st0" d="M220.05-168.34c0.77,0,1.39,0.62,1.39,1.39c0,0.77-0.62,1.39-1.39,1.39c-0.77,0-1.39-0.62-1.39-1.39
			C218.67-167.72,219.29-168.34,220.05-168.34 M220.05-162.78c2.3,0,4.17-1.87,4.17-4.17c0-2.3-1.87-4.17-4.17-4.17
			c-2.3,0-4.17,1.87-4.17,4.17C215.89-164.65,217.75-162.78,220.05-162.78"/>
		<path class="st0" d="M228.39-165.56h2.78c0.77,0,1.39-0.62,1.39-1.39c0-0.77-0.62-1.39-1.39-1.39h-2.78
			c-0.77,0-1.39,0.62-1.39,1.39C227-166.18,227.62-165.56,228.39-165.56"/>
		<path class="st0" d="M236.73-165.56h2.78c0.77,0,1.39-0.62,1.39-1.39c0-0.77-0.62-1.39-1.39-1.39h-2.78
			c-0.77,0-1.39,0.62-1.39,1.39C235.34-166.18,235.96-165.56,236.73-165.56"/>
		<path class="st0" d="M211.72-109.98c-10.74,0-19.45-8.71-19.45-19.46c0-10.74,8.71-19.45,19.45-19.45
			c10.74,0,19.45,8.71,19.45,19.45C231.16-118.69,222.46-109.99,211.72-109.98 M211.72-151.66c-12.28,0-22.23,9.95-22.23,22.23
			c0,12.28,9.95,22.23,22.23,22.23c12.28,0,22.23-9.95,22.23-22.23C233.94-141.7,223.99-151.65,211.72-151.66"/>
		<path class="st0" d="M211.72-114.15c-5.6,0-10.75-3.07-13.43-7.99c2.99-1.02,6.11-1.6,9.26-1.74c1.73-0.05,3.44,0.39,4.94,1.25
			c1.89,1.05,4.02,1.58,6.18,1.53c2.33,0.01,4.64-0.52,6.73-1.55C222.82-117.45,217.52-114.15,211.72-114.15 M211.72-144.72
			c8.42-0.02,15.27,6.79,15.29,15.21c0,1.14-0.12,2.27-0.37,3.38c-0.72,0.24-1.44,0.52-2.13,0.83c-1.8,0.94-3.81,1.42-5.84,1.42
			c-1.73,0.05-3.44-0.39-4.94-1.25c-1.89-1.05-4.02-1.58-6.18-1.53c-3.53,0.14-7.02,0.8-10.36,1.94
			c-2.62-8.02,1.75-16.64,9.77-19.25C208.49-144.46,210.1-144.72,211.72-144.72 M211.72-147.5c-9.97-0.01-18.06,8.06-18.07,18.03
			c0,2.36,0.46,4.7,1.36,6.89c0.01,0.03,0,0.06,0.01,0.08c0.01,0.03,0.04,0.05,0.05,0.09c3.87,9.19,14.45,13.5,23.64,9.63
			c5.14-2.17,8.99-6.59,10.43-11.98c0.01-0.02,0.01-0.05,0.02-0.07c2.58-9.6-3.11-19.47-12.71-22.05
			C214.91-147.29,213.32-147.5,211.72-147.5"/>
	</g>
</g>
<g>
	<path class="st0" d="M67.66,80.07c-5.69,0-10.32-4.63-10.32-10.32c0-5.69,4.63-10.32,10.32-10.32c5.69,0,10.32,4.63,10.32,10.32
		C77.98,75.44,73.35,80.07,67.66,80.07 M55.79,37.33v14.83c0,1.08-0.88,1.96-1.96,1.96H41.91l0.11-0.59
		C43.45,45.9,48.82,39.85,55.79,37.33 M58.14,29.15h4.91v4.56c-1.68,0-3.32,0.18-4.91,0.52V29.15z M19.11,74.64v-2.45
		c0-0.22,0.18-0.39,0.39-0.39h7.85c0.22,0,0.39,0.17,0.39,0.39v2.45H19.11z M68.83,57.14v-6.66c0-0.65-0.53-1.17-1.17-1.17
		c-0.65,0-1.17,0.53-1.17,1.17v6.66c-6.44,0.59-11.49,6.02-11.49,12.61c0,4.25,2.11,8.02,5.33,10.32h-11.3
		c-2.97,0-5.76-1.31-7.65-3.59c-1.9-2.28-2.67-5.27-2.12-8.18l2.22-11.83h12.37c2.37,0,4.3-1.93,4.3-4.3V36.63
		c1.59-0.38,3.24-0.57,4.93-0.57c1.89,0,3.42,1.54,3.42,3.42v6.3c0,0.65,0.53,1.17,1.17,1.17c0.65,0,1.17-0.53,1.17-1.17v-6.3
		c0-2.35-1.41-4.38-3.44-5.27v-6.23c0-0.65-0.53-1.17-1.17-1.17h-0.02V11.04c0-4.73-3.85-8.58-8.58-8.58
		c-3.38,0-6.46,1.99-7.84,5.08l-6.67,14.94c-0.26,0.59,0,1.29,0.59,1.55c0.59,0.26,1.29,0,1.55-0.59l6.67-14.94
		c1-2.24,3.24-3.69,5.69-3.69c3.44,0,6.24,2.8,6.24,6.24v15.77h-2.35V11.04c0-2.14-1.75-3.89-3.89-3.89c-1.53,0-2.93,0.9-3.55,2.3
		l-26.8,60H22.7l18.64-41.74c0.26-0.59,0-1.29-0.59-1.55c-0.59-0.26-1.29,0-1.55,0.59L20.13,69.45H19.5c-1.51,0-2.74,1.23-2.74,2.74
		v2.45h-3.98c-3.83,0-7.18,2.59-8.15,6.3c-0.09,0.35-0.01,0.73,0.21,1.01c0.22,0.29,0.57,0.46,0.93,0.46h18.46
		c0.65,0,1.17-0.53,1.17-1.17c0-0.65-0.53-1.17-1.17-1.17H7.49c1.06-1.87,3.06-3.08,5.28-3.08h19.9c1.68,0,3.15,1.14,3.57,2.76
		l0.08,0.32h-7.41c-0.65,0-1.17,0.53-1.17,1.17c0,0.65,0.53,1.17,1.17,1.17h8.93c0.36,0,0.71-0.17,0.93-0.46
		c0.22-0.29,0.3-0.66,0.21-1.01l-0.46-1.78c-0.69-2.66-3.09-4.52-5.84-4.52h-2.59v-2.45c0-1.35-0.98-2.47-2.27-2.69l26.39-59.09
		c0.25-0.56,0.8-0.91,1.41-0.91c0.85,0,1.54,0.69,1.54,1.54v15.77h-0.2c-0.65,0-1.17,0.53-1.17,1.17v6.87
		c-8.12,2.61-14.44,9.49-16.08,18.24l-2.77,14.76c-0.68,3.61,0.28,7.29,2.62,10.12c2.34,2.82,5.79,4.44,9.46,4.44h18.63
		c6.98,0,12.67-5.68,12.67-12.67C80.33,63.16,75.27,57.73,68.83,57.14"/>
	<path class="st0" d="M67.66,72.67c-1.61,0-2.92-1.31-2.92-2.92c0-1.61,1.31-2.92,2.92-2.92c1.61,0,2.92,1.31,2.92,2.92
		C70.59,71.36,69.27,72.67,67.66,72.67 M67.66,64.48c-2.91,0-5.27,2.36-5.27,5.27c0,2.91,2.36,5.27,5.27,5.27
		c2.91,0,5.27-2.36,5.27-5.27C72.93,66.84,70.57,64.48,67.66,64.48"/>
</g>
</svg>
