<?xml version="1.0" encoding="utf-8"?>
<!-- Generator: Adobe Illustrator 24.0.1, SVG Export Plug-In . SVG Version: 6.00 Build 0)  -->
<svg version="1.1" id="Capa_1" xmlns="http://www.w3.org/2000/svg" xmlns:xlink="http://www.w3.org/1999/xlink" x="0px" y="0px"
	 viewBox="0 0 512 512" style="enable-background:new 0 0 512 512;" xml:space="preserve">
<style type="text/css">
	.st0{fill:#FFFFFF;stroke:#FFFFFF;stroke-width:4.252;stroke-miterlimit:10;}
</style>
<g>
	<path class="st0" d="M495.3,280.1c-9.4-12-24.4-17.4-38.7-15.1c-13-14.5-34.8-18-51.7-7.8l-2.9,1.6c-13.2-11.9-33-14.1-48.6-4.7
		l-85,49.3l-28.8-3.6l40.2-28.9c10.7-7.7,17.1-20.2,17.1-33.2c0-2.7-0.3-5.5-0.9-8.1c-4.5-21.9-25.2-35.9-47.1-32.2l-8.7,1.6
		c-35.5,6.2-68.5,19.6-98.3,39.7c-3.3,2.2-4.2,6.8-1.9,10.1c2.2,3.3,6.8,4.2,10.1,1.9c28.1-19,59.2-31.6,92.6-37.4l8.7-1.6
		c14.1-2.4,27.5,6.7,30.4,20.7c0.4,1.7,0.6,3.5,0.6,5.3c0,8.5-4.2,16.6-11,21.5L216,299c-2.4,1.7-3.6,4.8-2.8,7.7
		c0.8,2.8,3.2,5,6.1,5.4l148.3,18.5c1.6,0.2,3.3-0.2,4.7-1l77-46.7c11.4-6.9,26.3-4.3,34.5,6.3c3.7,4.7,5.6,10.4,5.6,16.3
		c0,6.6-2.4,12.9-6.8,17.7L412.4,401c-6.7,7.4-15.8,12.2-25.7,13.5L178.3,441l-6.2-10.9L93.5,293.6l33.6-25.8
		c3.2-2.4,3.8-7,1.4-10.2c-2.4-3.2-7-3.8-10.2-1.4L80,285.7l-68.6,43.9c-3.3,2-4.4,6.3-2.4,9.7l90.3,157c1,1.7,2.6,3,4.6,3.4
		c0.6,0.1,1.2,0.2,1.7,0.2c1.4,0,2.7-0.4,3.9-1.2l67.5-43.1l211.6-26.9c13.4-1.7,25.7-8.1,34.7-18.1l70.2-77.8
		c6.8-7.6,10.6-17.3,10.6-27.4C504,296.3,500.9,287.3,495.3,280.1L495.3,280.1z M360.7,266.8C360.7,266.8,360.8,266.8,360.7,266.8
		c8.7-5.3,19.5-5,27.7,0.1l-73.2,42.4l-23-2.9L360.7,266.8z M367,315.8l-28-3.5l73.2-42.5c0,0,0.1,0,0.1-0.1
		c9.2-5.5,20.5-4.9,28.9,1L367,315.8z M108.1,482.5L25,338.1l56.6-36.1L160,438.2l4.7,8.1L108.1,482.5z"/>
	<path class="st0" d="M120.8,417.2c-12.2,0-22.1,9.9-22.1,22.1c0,12.2,9.9,22.1,22.1,22.1s22.1-9.9,22.1-22.1
		C142.8,427.1,132.9,417.2,120.8,417.2z M120.8,446.8c-4.2,0-7.6-3.4-7.6-7.6c0-4.2,3.4-7.6,7.6-7.6c4.2,0,7.6,3.4,7.6,7.6
		C128.3,443.5,124.9,446.8,120.8,446.8z"/>
	<path class="st0" d="M231.5,126.4c3.1,3,4.6,7.4,3.8,11.6l-3.7,21.5c-1.8,10.5,2.4,20.8,11,27.1c4.8,3.5,10.6,5.3,16.3,5.3
		c4.4,0,8.8-1.1,12.9-3.2l19.4-10.2c3.9-2,8.4-2,12.2,0l19.4,10.2c9.4,4.9,20.5,4.2,29.2-2.1c8.6-6.2,12.8-16.7,11-27.1l-3.7-21.5
		c-0.8-4.3,0.7-8.6,3.8-11.6l15.7-15.2c7.7-7.5,10.3-18.3,7-28.4c-3.3-10.1-11.8-17.3-22.4-18.9l-7.3-1.1c-4-0.6-7.7,2.1-8.2,6.1
		c-0.6,4,2.1,7.7,6.1,8.2l7.3,1.1c5,0.8,9,4.1,10.7,8.9c1.6,4.8,0.4,9.9-3.3,13.5l-15.7,15.3c-6.5,6.4-9.5,15.5-7.9,24.5l3.7,21.5
		c0.9,5-1.1,9.9-5.2,12.9c-4.2,3-9.3,3.4-13.9,1l-19.4-10.2c-8-4.3-17.7-4.3-25.8,0L265,175.8c-4.6,2.4-9.7,2-13.9-1
		c-4.2-3-6.1-7.8-5.2-12.9l3.7-21.5c1.6-9-1.5-18.2-7.9-24.5L226,100.7c-3.7-3.6-4.9-8.6-3.3-13.5c1.6-4.8,5.5-8.2,10.7-8.9
		l21.6-3.1c9-1.4,16.9-7,20.8-15.1l9.7-19.6c2.2-4.6,6.7-7.4,11.8-7.4c5.1,0,9.6,2.7,11.8,7.4l9.7,19.6c1,2,2.2,3.9,3.7,5.6
		c2.6,3.1,7.2,3.5,10.3,0.9c3.1-2.6,3.5-7.2,0.9-10.3c-0.7-0.8-1.3-1.6-1.7-2.6l-9.7-19.6c-4.7-9.5-14.2-15.4-24.8-15.4
		c-10.7,0-20.2,5.9-24.8,15.4l-9.7,19.6c-1.9,3.9-5.6,6.6-9.9,7.2L231.4,64c-10.5,1.6-19.1,8.7-22.4,18.9c-3.3,10.1-0.6,21,7,28.4
		L231.5,126.4z"/>
	<path class="st0" d="M145,54.8l19,9.3c2.8,1.4,5.9,2,8.9,2c7.1,0,14-3.7,17.7-10.2l1-1.6c5.3-9.2,2.6-21.1-6.3-27l-17.5-11.8
		c-4.7-3.1-10.5-4.2-16-2.9c-5.5,1.3-10.3,4.7-13.1,9.7l-2.4,4.2c-2.8,4.8-3.5,10.8-1.8,16.1C136.2,47.8,139.9,52.4,145,54.8
		L145,54.8z M149,33.7l2.4-4.2c0.8-1.5,2.1-2.4,3.8-2.8c0.5-0.1,0.9-0.2,1.4-0.2c1.2,0,2.2,0.3,3.2,1l17.5,11.8
		c2.5,1.7,3.3,5.1,1.8,7.8l-1,1.6c-1.6,2.6-4.8,3.7-7.7,2.3l-19.1-9.2c-1.5-0.7-2.5-1.9-3-3.5C147.9,36.8,148.1,35,149,33.7z"/>
	<path class="st0" d="M449.5,173.6l-19-9.3c-9.6-4.7-21.2-1.2-26.5,8.1l-1,1.6l0,0c-5.3,9.2-2.6,21.1,6.3,27l17.5,11.8
		c3.4,2.2,7.4,3.5,11.4,3.5c1.6,0,3.1-0.2,4.6-0.5c5.5-1.3,10.3-4.7,13.1-9.7l2.4-4.2c2.8-4.8,3.5-10.8,1.8-16.1
		C458.4,180.5,454.5,176,449.5,173.6L449.5,173.6z M445.6,194.8l-2.4,4.2c-0.8,1.5-2.1,2.4-3.8,2.8c-1.6,0.4-3.2,0.1-4.6-0.9
		l-17.5-11.8c-2.5-1.7-3.3-5.1-1.8-7.8l1-1.6c1.6-2.6,4.8-3.7,7.7-2.3l19,9.3c1.5,0.7,2.5,1.9,3,3.5
		C446.6,191.7,446.4,193.3,445.6,194.8L445.6,194.8z"/>
	<path class="st0" d="M119.9,131.5c3.8,3.5,8.8,5.5,14,5.5c0.5,0,0.9,0,1.4,0l21.1-1.5c10.7-0.8,19-9.7,19-20.3v-1.9
		c0-10.7-8.3-19.6-19-20.3l-21.1-1.5c-5.6-0.4-11.1,1.6-15.3,5.4c-4.2,3.9-6.5,9.3-6.5,14.9v4.8
		C113.5,122.2,115.8,127.6,119.9,131.5z M128,111.8c0-1.6,0.7-3.1,1.8-4.3c1.1-1.1,2.5-1.6,4-1.6c0.1,0,0.3,0,0.4,0l21.1,1.5
		c3,0.2,5.4,2.8,5.4,5.8v1.9c0,3-2.4,5.6-5.4,5.8l-21.1,1.5c-1.6,0.1-3.2-0.5-4.4-1.6c-1.2-1.2-1.8-2.6-1.8-4.3V111.8z"/>
	<path class="st0" d="M459.2,91.5l-21.1,1.4c-10.7,0.8-19,9.7-19,20.3v1.9c0,10.7,8.3,19.6,19,20.3l21.1,1.5c0.5,0,1,0,1.4,0
		c5.1,0,10.2-1.9,14-5.5c4.1-3.9,6.5-9.3,6.5-14.9v-4.8c0-5.6-2.3-11-6.5-14.9C470.5,93.1,464.9,91.1,459.2,91.5z M464.7,107.5
		c1.2,1.2,1.8,2.6,1.8,4.3v4.8c0,1.6-0.7,3.1-1.8,4.3s-2.7,1.6-4.4,1.6l-21.1-1.5c-3-0.2-5.4-2.8-5.4-5.8v-1.9c0-3,2.4-5.6,5.4-5.8
		l21.1-1.5c0.1,0,0.3,0,0.4,0C462.2,105.9,463.5,106.5,464.7,107.5L464.7,107.5z"/>
	<path class="st0" d="M164.1,164.3l-19,9.3c-5,2.5-8.9,7-10.6,12.3c-1.6,5.3-1,11.2,1.8,16.1l2.4,4.2c2.8,4.8,7.6,8.4,13.1,9.7
		c1.6,0.4,3,0.5,4.6,0.5c4.1,0,8-1.2,11.4-3.5l17.5-11.8c8.8-5.9,11.6-17.8,6.3-27l-1-1.6l0,0C185.3,163.1,173.6,159.6,164.1,164.3z
		 M177.2,189.1l-17.5,11.8c-1.4,0.9-3,1.2-4.6,0.9c-1.6-0.4-2.9-1.4-3.8-2.8l-2.4-4.2c-0.8-1.5-1-3-0.5-4.7c0.5-1.6,1.6-2.8,3-3.5
		l19-9.3c0.8-0.4,1.6-0.6,2.5-0.6c2,0,4,1.1,5,2.9l0,0l1,1.6C180.5,183.9,179.8,187.3,177.2,189.1L177.2,189.1z"/>
	<path class="st0" d="M403.8,56c3.8,6.5,10.7,10.2,17.7,10.2c3,0,6-0.7,8.9-2l19-9.3c5-2.4,8.9-7,10.6-12.3c1.6-5.3,1-11.2-1.8-16.1
		l-2.4-4.2c-2.8-4.8-7.6-8.4-13.1-9.7c-5.5-1.3-11.3-0.2-16,2.9l-17.5,11.8c-8.8,5.9-11.6,17.8-6.3,27L403.8,56z M417.3,39.3
		l17.5-11.8c1-0.7,2.1-1,3.2-1c0.5,0,0.9,0.1,1.4,0.2c1.6,0.4,2.9,1.4,3.8,2.8l2.4,4.2c0.8,1.5,1,3,0.5,4.7c-0.5,1.6-1.6,2.8-3,3.5
		l-19,9.3c-2.7,1.4-6.1,0.3-7.7-2.3l-1-1.6C413.9,44.4,414.8,41,417.3,39.3L417.3,39.3z"/>
</g>
</svg>
