<?xml version="1.0" encoding="utf-8"?>
<!-- Generator: Adobe Illustrator 24.0.1, SVG Export Plug-In . SVG Version: 6.00 Build 0)  -->
<svg version="1.1" id="_x31_" xmlns="http://www.w3.org/2000/svg" xmlns:xlink="http://www.w3.org/1999/xlink" x="0px" y="0px"
	 viewBox="0 0 512 512" style="enable-background:new 0 0 512 512;" xml:space="preserve">
<style type="text/css">
	.st0{fill:#FFFFFF;}
</style>
<path class="st0" d="M394.7,512H53.3C23.9,512,0,488.1,0,458.7V160c0-29.4,23.9-53.3,53.3-53.3h149.3c5.9,0,10.7,4.8,10.7,10.7
	s-4.8,10.7-10.7,10.7H53.3c-17.6,0-32,14.4-32,32v298.7c0,17.6,14.4,32,32,32h336.9l100.4-100.4V160c0-17.6-14.4-32-32-32H309.3
	c-5.9,0-10.7-4.8-10.7-10.7s4.8-10.7,10.7-10.7h149.3c29.4,0,53.3,23.9,53.3,53.3v234.7c0,2.8-1.1,5.5-3.1,7.6L402.2,508.9
	C400.2,510.9,397.5,512,394.7,512z M501.3,394.7h0.2H501.3z"/>
<path class="st0" d="M394.7,512c-5.9,0-10.7-4.8-10.7-10.7V394.7c0-5.9,4.8-10.7,10.7-10.7h106.7c5.9,0,10.7,4.8,10.7,10.7
	c0,5.9-4.8,10.7-10.7,10.7h-96v96C405.3,507.2,400.6,512,394.7,512z"/>
<path class="st0" d="M256,192c-5.9,0-10.7-4.8-10.7-10.7V74.7c0-5.9,4.8-10.7,10.7-10.7s10.7,4.8,10.7,10.7v106.7
	C266.7,187.2,261.9,192,256,192z"/>
<path class="st0" d="M256,85.3c-23.5,0-42.7-19.1-42.7-42.7S232.5,0,256,0s42.7,19.1,42.7,42.7S279.5,85.3,256,85.3z M256,21.3
	c-11.8,0-21.3,9.6-21.3,21.3S244.2,64,256,64c11.8,0,21.3-9.6,21.3-21.3S267.8,21.3,256,21.3z"/>
<path class="st0" d="M416,256H96c-5.9,0-10.7-4.8-10.7-10.7s4.8-10.7,10.7-10.7h320c5.9,0,10.7,4.8,10.7,10.7S421.9,256,416,256z"/>
<path class="st0" d="M416,341.3H96c-5.9,0-10.7-4.8-10.7-10.7S90.1,320,96,320h320c5.9,0,10.7,4.8,10.7,10.7S421.9,341.3,416,341.3z
	"/>
<path class="st0" d="M330.7,426.7H96c-5.9,0-10.7-4.8-10.7-10.7c0-5.9,4.8-10.7,10.7-10.7h234.7c5.9,0,10.7,4.8,10.7,10.7
	C341.3,421.9,336.6,426.7,330.7,426.7z"/>
</svg>
