<?xml version="1.0" encoding="utf-8"?>
<!-- Generator: Adobe Illustrator 24.0.1, SVG Export Plug-In . SVG Version: 6.00 Build 0)  -->
<svg version="1.1" id="Layer_1" xmlns="http://www.w3.org/2000/svg" xmlns:xlink="http://www.w3.org/1999/xlink" x="0px" y="0px"
	 viewBox="0 0 85.04 85.04" style="enable-background:new 0 0 85.04 85.04;" xml:space="preserve">
<style type="text/css">
	.st0{fill:#FFFFFF;}
</style>
<g>
	<g>
		<path class="st0" d="M73.13,74.99H12.89c-0.76,0-1.37-0.61-1.37-1.37v-53.4H74.5v53.4C74.5,74.38,73.89,74.99,73.13,74.99
			 M70.39,80.47H15.63v-2.74h54.77V80.47z M15.63,3.79h54.77c2.27,0,4.11,1.84,4.11,4.11v9.59H11.52V7.9
			C11.52,5.63,13.36,3.79,15.63,3.79 M70.39,1.06H15.63c-3.78,0-6.84,3.07-6.85,6.85v65.72c0,2.27,1.84,4.11,4.11,4.11v4.11
			c0,0.76,0.61,1.37,1.37,1.37h57.51c0.76,0,1.37-0.61,1.37-1.37v-4.11c2.27,0,4.11-1.84,4.11-4.11V7.9
			C77.24,4.12,74.17,1.06,70.39,1.06"/>
		<path class="st0" d="M16.99,9.27h13.69v2.74H16.99V9.27z M15.63,14.75h16.43c0.76,0,1.37-0.61,1.37-1.37V7.9
			c0-0.76-0.61-1.37-1.37-1.37H15.63c-0.76,0-1.37,0.61-1.37,1.37v5.48C14.26,14.13,14.87,14.75,15.63,14.75"/>
		<path class="st0" d="M40.27,9.27c0.76,0,1.37,0.61,1.37,1.37c0,0.76-0.61,1.37-1.37,1.37c-0.76,0-1.37-0.61-1.37-1.37
			C38.9,9.88,39.52,9.27,40.27,9.27 M40.27,14.75c2.27,0,4.11-1.84,4.11-4.11c0-2.27-1.84-4.11-4.11-4.11
			c-2.27,0-4.11,1.84-4.11,4.11C36.16,12.91,38,14.75,40.27,14.75"/>
		<path class="st0" d="M51.22,9.27c0.76,0,1.37,0.61,1.37,1.37c0,0.76-0.61,1.37-1.37,1.37c-0.76,0-1.37-0.61-1.37-1.37
			C49.86,9.88,50.47,9.27,51.22,9.27 M51.22,14.75c2.27,0,4.11-1.84,4.11-4.11c0-2.27-1.84-4.11-4.11-4.11
			c-2.27,0-4.11,1.84-4.11,4.11C47.12,12.91,48.96,14.75,51.22,14.75"/>
		<path class="st0" d="M59.44,12.01h2.74c0.76,0,1.37-0.61,1.37-1.37c0-0.76-0.61-1.37-1.37-1.37h-2.74c-0.76,0-1.37,0.61-1.37,1.37
			C58.07,11.4,58.68,12.01,59.44,12.01"/>
		<path class="st0" d="M67.66,12.01h2.74c0.76,0,1.37-0.61,1.37-1.37c0-0.76-0.61-1.37-1.37-1.37h-2.74c-0.76,0-1.37,0.61-1.37,1.37
			C66.29,11.4,66.9,12.01,67.66,12.01"/>
		<path class="st0" d="M43.01,66.78c-10.59,0-19.17-8.58-19.17-19.17c0-10.59,8.58-19.17,19.17-19.17
			c10.59,0,19.17,8.58,19.17,19.17C62.17,58.19,53.59,66.77,43.01,66.78 M43.01,25.7c-12.1,0-21.91,9.81-21.91,21.91
			c0,12.1,9.81,21.91,21.91,21.91c12.1,0,21.91-9.81,21.91-21.91C64.9,35.51,55.1,25.72,43.01,25.7"/>
		<path class="st0" d="M43.01,62.67c-5.52,0-10.6-3.02-13.23-7.87c2.95-1,6.02-1.58,9.13-1.71c1.7-0.05,3.39,0.38,4.86,1.23
			c1.86,1.03,3.96,1.55,6.09,1.51c2.3,0.01,4.57-0.51,6.63-1.53C53.95,59.42,48.73,62.66,43.01,62.67 M43.01,32.55
			c8.3-0.02,15.04,6.69,15.06,14.99c0,1.12-0.12,2.24-0.37,3.33c-0.71,0.24-1.41,0.51-2.1,0.82c-1.78,0.92-3.75,1.4-5.75,1.4
			c-1.7,0.05-3.39-0.38-4.86-1.23c-1.86-1.03-3.96-1.55-6.09-1.51c-3.48,0.14-6.92,0.79-10.21,1.92c-2.58-7.9,1.73-16.39,9.63-18.97
			C39.83,32.8,41.42,32.54,43.01,32.55 M43.01,29.81c-9.82-0.01-17.79,7.94-17.8,17.76c0,2.33,0.45,4.63,1.34,6.78
			c0.01,0.03,0,0.06,0.01,0.08c0.01,0.03,0.04,0.05,0.05,0.08c3.81,9.05,14.24,13.3,23.3,9.49c5.07-2.13,8.86-6.49,10.28-11.8
			c0.01-0.02,0.01-0.05,0.02-0.07c2.54-9.46-3.06-19.18-12.52-21.73C46.16,30.01,44.59,29.8,43.01,29.81"/>
	</g>
</g>
</svg>
