<?xml version="1.0" encoding="utf-8"?>
<!-- Generator: Adobe Illustrator 24.0.1, SVG Export Plug-In . SVG Version: 6.00 Build 0)  -->
<svg version="1.1" id="Layer_1" xmlns="http://www.w3.org/2000/svg" xmlns:xlink="http://www.w3.org/1999/xlink" x="0px" y="0px"
	 viewBox="0 0 85.04 85.04" style="enable-background:new 0 0 85.04 85.04;" xml:space="preserve">
<style type="text/css">
	.st0{fill:#FFFFFF;}
</style>
<g>
	<g>
		<path class="st0" d="M60.89-164.58H-3.43v-4.28h64.32V-164.58z M60.89-144.94H-3.43v-15.37h64.32V-144.94z M27.11-173.13h-9.18
			v-4.28h9.18V-173.13z M8.39-196.23h28.26v14.55H8.39V-196.23z M38.78-206.12c4.28,0,7.77,3.48,7.77,7.76
			c0,3.54-2.38,6.53-5.63,7.46v-9.6h-9.6C32.25-203.74,35.24-206.12,38.78-206.12 M49.07-177.7v4.57H31.38v-4.28h9.54v-8.91
			C45.45-186.06,49.07-182.29,49.07-177.7 M53.33-173.13v-4.57c0-4.94-2.79-9.23-6.87-11.4c2.66-2.21,4.36-5.54,4.36-9.26
			c0-6.64-5.4-12.03-12.03-12.03c-5.91,0-10.83,4.28-11.84,9.9H4.12v23.09h9.54v4.28H-7.7v32.45h72.86v-32.45H53.33z"/>
	</g>
	<g>
		<path class="st0" d="M212.17-157.51c0,1.17-0.95,2.12-2.12,2.12h-2.12h-16.96h-33.92h-16.96h-2.12c-1.17,0-2.12-0.95-2.12-2.12
			v-14.63l0.83-4.16c0.53-2.63,2.85-4.53,5.53-4.53c0.97,0,1.82-0.66,2.06-1.61l4.76-19.02c0.71-2.83,3.25-4.82,6.17-4.82h37.64
			c2.92,0,5.46,1.98,6.17,4.82l4.76,19.02c0.23,0.94,1.08,1.61,2.06,1.61c2.68,0,5,1.9,5.53,4.53l0.83,4.16V-157.51z M205.81-146.91
			c0,1.17-0.95,2.12-2.12,2.12h-8.48c-1.17,0-2.12-0.95-2.12-2.12v-4.24h12.72V-146.91z M154.93-146.91c0,1.17-0.95,2.12-2.12,2.12
			h-8.48c-1.17,0-2.12-0.95-2.12-2.12v-4.24h12.72V-146.91z M216.36-172.77l-0.87-4.36c-0.81-4.04-4.04-7.1-7.99-7.79l-4.39-17.56
			c-1.18-4.73-5.41-8.03-10.28-8.03h-37.64c-4.87,0-9.1,3.3-10.28,8.03l-4.39,17.56c-3.95,0.69-7.19,3.75-8,7.79l-0.87,4.36
			c-0.03,0.14-0.04,0.28-0.04,0.42v14.84c0,3.51,2.85,6.36,6.36,6.36v4.24c0,3.51,2.85,6.36,6.36,6.36h8.48
			c3.51,0,6.36-2.85,6.36-6.36v-4.24h29.68v4.24c0,3.51,2.85,6.36,6.36,6.36h8.48c3.51,0,6.36-2.85,6.36-6.36v-4.24
			c3.51,0,6.36-2.85,6.36-6.36v-14.84C216.41-172.49,216.39-172.63,216.36-172.77"/>
		<path class="st0" d="M190.57-185.07c0.24-0.67,0.39-1.37,0.39-2.12c0-3.51-2.85-6.36-6.36-6.36c-3.51,0-6.36,2.85-6.36,6.36
			c0,0.75,0.15,1.45,0.39,2.12H153.4l3.18-12.72h34.85l3.18,12.72H190.57z M184.61-185.07c-1.17,0-2.12-0.95-2.12-2.12
			s0.95-2.12,2.12-2.12c1.17,0,2.12,0.95,2.12,2.12S185.78-185.07,184.61-185.07 M199.38-183.47l-4.24-16.96
			c-0.23-0.95-1.08-1.61-2.06-1.61h-38.16c-0.97,0-1.82,0.66-2.06,1.61l-4.24,16.96c-0.16,0.63-0.01,1.3,0.39,1.82
			c0.4,0.51,1.02,0.82,1.67,0.82h46.64c0.65,0,1.27-0.3,1.67-0.82C199.4-182.16,199.54-182.84,199.38-183.47"/>
	</g>
	<rect x="161.29" y="-163.87" class="st0" width="25.44" height="4.24"/>
	<rect x="180.37" y="-172.35" class="st0" width="6.36" height="4.24"/>
	<rect x="171.89" y="-172.35" class="st0" width="4.24" height="4.24"/>
	<rect x="161.29" y="-172.35" class="st0" width="6.36" height="4.24"/>
	<g>
		<path class="st0" d="M148.57-163.87c-2.34,0-4.24-1.9-4.24-4.24s1.9-4.24,4.24-4.24c2.34,0,4.24,1.9,4.24,4.24
			S150.91-163.87,148.57-163.87 M148.57-176.59c-4.68,0-8.48,3.8-8.48,8.48s3.8,8.48,8.48,8.48c4.68,0,8.48-3.8,8.48-8.48
			S153.24-176.59,148.57-176.59"/>
		<path class="st0" d="M199.45-163.87c-2.34,0-4.24-1.9-4.24-4.24s1.9-4.24,4.24-4.24c2.34,0,4.24,1.9,4.24,4.24
			S201.79-163.87,199.45-163.87 M199.45-176.59c-4.68,0-8.48,3.8-8.48,8.48s3.8,8.48,8.48,8.48c4.68,0,8.48-3.8,8.48-8.48
			S204.12-176.59,199.45-176.59"/>
	</g>
	<g>
		<path class="st0" d="M491.8-134.86c-6.15,0-11.15-5-11.15-11.15c0-6.15,5-11.15,11.15-11.15c6.15,0,11.15,5,11.15,11.15
			C502.96-139.86,497.95-134.86,491.8-134.86 M478.98-181.05v16.03c0,1.16-0.95,2.11-2.11,2.11h-12.89l0.12-0.63
			C465.63-171.79,471.44-178.32,478.98-181.05 M481.51-189.89h5.31v4.93c-1.82,0-3.59,0.19-5.31,0.56V-189.89z M439.32-140.72v-2.65
			c0-0.23,0.19-0.42,0.42-0.42h8.49c0.23,0,0.42,0.19,0.42,0.42v2.65H439.32z M493.07-159.64v-7.2c0-0.7-0.57-1.27-1.27-1.27
			c-0.7,0-1.27,0.57-1.27,1.27v7.2c-6.96,0.64-12.42,6.51-12.42,13.63c0,4.6,2.28,8.67,5.77,11.15h-12.22
			c-3.21,0-6.22-1.42-8.27-3.88c-2.05-2.47-2.89-5.69-2.29-8.85l2.4-12.78h13.37c2.56,0,4.65-2.09,4.65-4.65v-16.78
			c1.72-0.41,3.5-0.62,5.32-0.62c2.04,0,3.7,1.66,3.7,3.7v6.81c0,0.7,0.57,1.27,1.27,1.27c0.7,0,1.27-0.57,1.27-1.27v-6.81
			c0-2.54-1.53-4.73-3.71-5.7v-6.73c0-0.7-0.57-1.27-1.27-1.27h-0.02v-17.05c0-5.12-4.16-9.28-9.28-9.28
			c-3.65,0-6.98,2.16-8.47,5.49l-7.21,16.14c-0.29,0.64,0,1.39,0.64,1.68c0.64,0.29,1.39,0,1.67-0.64l7.21-16.14
			c1.08-2.42,3.5-3.99,6.15-3.99c3.72,0,6.74,3.02,6.74,6.74v17.05H483v-17.05c0-2.32-1.89-4.2-4.2-4.2c-1.66,0-3.16,0.98-3.84,2.49
			l-28.97,64.85h-2.78l20.15-45.11c0.29-0.64,0-1.39-0.64-1.68c-0.64-0.29-1.39,0-1.68,0.64l-20.61,46.14h-0.68
			c-1.63,0-2.96,1.33-2.96,2.96v2.65h-4.3c-4.14,0-7.77,2.8-8.81,6.81c-0.1,0.38-0.02,0.79,0.22,1.1c0.24,0.31,0.61,0.49,1,0.49
			h19.95c0.7,0,1.27-0.57,1.27-1.27s-0.57-1.27-1.27-1.27h-18.08c1.14-2.02,3.3-3.32,5.71-3.32h21.51c1.82,0,3.4,1.23,3.86,2.98
			l0.09,0.34h-8.01c-0.7,0-1.27,0.57-1.27,1.27s0.57,1.27,1.27,1.27h9.65c0.39,0,0.76-0.18,1-0.49c0.24-0.31,0.32-0.71,0.22-1.1
			l-0.5-1.93c-0.75-2.88-3.34-4.88-6.31-4.88h-2.79v-2.65c0-1.46-1.06-2.67-2.45-2.91l28.53-63.87c0.27-0.6,0.87-0.99,1.52-0.99
			c0.92,0,1.67,0.75,1.67,1.67v17.05h-0.22c-0.7,0-1.27,0.57-1.27,1.27v7.43c-8.77,2.82-15.61,10.26-17.38,19.72l-2.99,15.96
			c-0.73,3.9,0.3,7.88,2.84,10.93c2.53,3.05,6.26,4.8,10.22,4.8h20.14c7.55,0,13.69-6.14,13.69-13.69
			C505.49-153.13,500.03-159,493.07-159.64"/>
		<path class="st0" d="M491.8-142.85c-1.74,0-3.16-1.42-3.16-3.16c0-1.74,1.42-3.16,3.16-3.16c1.74,0,3.16,1.42,3.16,3.16
			C494.96-144.27,493.55-142.85,491.8-142.85 M491.8-151.71c-3.14,0-5.7,2.56-5.7,5.7c0,3.14,2.56,5.7,5.7,5.7
			c3.14,0,5.7-2.56,5.7-5.7C497.5-149.15,494.95-151.71,491.8-151.71"/>
	</g>
	<g>
		<path class="st0" d="M353.81-166.9v4.23c0.01,0.79-0.58,1.45-1.37,1.52c-0.79,0.04-1.47-0.57-1.51-1.37c0-0.02,0-0.05,0-0.07
			v-5.75h-2.88v5.75c0,0.79-0.64,1.44-1.44,1.44c-0.79,0-1.44-0.64-1.44-1.44v-5.75h-2.88v5.75c0,0.79-0.64,1.44-1.44,1.44
			c-0.79,0-1.44-0.64-1.44-1.44v-5.75h-2.88v5.75c0,0.79-0.63,1.43-1.42,1.44h-0.02c-0.37,0-0.72-0.15-0.97-0.41
			c-0.3-0.29-0.47-0.69-0.47-1.1v-10.35c0-1.39,1.13-2.52,2.52-2.52h15.1c1.39,0,2.52,1.13,2.52,2.52L353.81-166.9z M349.49-135.26
			h-19.01l-0.72-2.88h19.73V-135.26z M324.72-135.26l-2.16-8.63h2.79l2.16,8.63H324.72z M318.97-135.26l-2.16-8.63h2.79l2.16,8.63
			H318.97z M311.92-135.26l-1.08-8.63h3l2.16,8.63H311.92z M303.65-135.26l1.08-8.63h3.21l1.08,8.63H303.65z M298.83-143.89h3
			l-1.08,8.63h-4.08L298.83-143.89z M287.33-143.89h2.79l-2.16,8.63h-2.79L287.33-143.89z M290.92-135.26l2.16-8.63h2.79l-2.16,8.63
			H290.92z M287.64-149.64h37.4v2.88h-37.4V-149.64z M304.9-214.37c0-0.79,0.64-1.44,1.44-1.44c0.8,0,1.44,0.64,1.44,1.44v61.85
			h-2.88V-214.37z M318.01-165.47h12.79v2.8c0.01,1.19,0.48,2.32,1.33,3.15c0.81,0.81,1.91,1.26,3.05,1.24
			c1.04-0.02,2.04-0.41,2.81-1.1c1.64,1.47,4.12,1.47,5.75,0c1.64,1.47,4.11,1.47,5.75,0c0.56,0.5,1.24,0.85,1.97,1l-1.83,17.36
			h-20.6l-1.12-4.49v-4.14c0-1.59-1.29-2.88-2.88-2.88h-5.67L318.01-165.47z M316.41-171.22h14.38v2.88h-14.38V-171.22z
			 M323.6-179.85c0-7.15,5.8-12.95,12.95-12.95c7.15,0,12.95,5.8,12.95,12.95v1.44h-13.3c-2.56,0-4.77,1.81-5.29,4.32h-7.3V-179.85z
			 M352.37-178.3v-1.55c0-8.74-7.08-15.82-15.82-15.82c-8.74,0-15.82,7.08-15.82,15.82v5.75h-5.75c-0.8,0-1.44,0.64-1.44,1.44v5.75
			c0,0.79,0.64,1.44,1.44,1.44h0.14l1.36,12.95h-5.82v-61.85c0-2.38-1.93-4.31-4.32-4.31s-4.32,1.93-4.32,4.31v61.85h-14.38
			c-1.59,0-2.88,1.29-2.88,2.88v4.14l-2.83,11.34c-0.19,0.77,0.28,1.55,1.05,1.74c0.11,0.03,0.23,0.04,0.35,0.04h67.6
			c0.79,0,1.44-0.64,1.44-1.44v-5.68l2.03-19.29c1.42-0.78,2.29-2.27,2.28-3.88v-10.35C356.68-175.58,354.88-177.79,352.37-178.3"/>
	</g>
	<rect x="343.74" y="-151.08" class="st0" width="2.88" height="7.19"/>
	<rect x="343.74" y="-156.84" class="st0" width="2.88" height="2.88"/>
	<g>
		<path class="st0" d="M291.96-181.01c0.71,1.01,1.59,1.89,2.59,2.6c-1.01,0.71-1.89,1.59-2.59,2.6c-0.71-1.01-1.59-1.89-2.6-2.6
			C290.37-179.12,291.25-180,291.96-181.01 M290.59-172.2c0.25,0.75,1.07,1.16,1.82,0.91c0.43-0.14,0.77-0.48,0.91-0.91
			c0.77-2.28,2.56-4.08,4.84-4.84c0.75-0.25,1.16-1.07,0.91-1.82c-0.14-0.43-0.48-0.77-0.91-0.91c-2.28-0.77-4.08-2.56-4.84-4.84
			c-0.25-0.75-1.07-1.16-1.82-0.91c-0.43,0.14-0.77,0.48-0.91,0.91c-0.77,2.28-2.56,4.08-4.84,4.84c-0.75,0.25-1.16,1.07-0.91,1.82
			c0.14,0.43,0.48,0.77,0.91,0.91C288.03-176.28,289.82-174.49,290.59-172.2"/>
		<path class="st0" d="M355.25-193.08c-0.71-1.01-1.59-1.89-2.6-2.6c1.01-0.71,1.89-1.59,2.6-2.6c0.71,1.01,1.59,1.89,2.59,2.6
			C356.83-194.96,355.95-194.09,355.25-193.08 M361.45-197.04c-2.28-0.77-4.08-2.56-4.84-4.84c-0.25-0.75-1.07-1.16-1.82-0.91
			c-0.43,0.14-0.77,0.48-0.91,0.91c-0.77,2.28-2.56,4.08-4.84,4.84c-0.75,0.25-1.16,1.07-0.91,1.82c0.14,0.43,0.48,0.77,0.91,0.91
			c2.28,0.77,4.08,2.56,4.84,4.84c0.25,0.75,1.07,1.16,1.82,0.91c0.43-0.14,0.77-0.48,0.91-0.91c0.77-2.28,2.56-4.08,4.84-4.84
			c0.75-0.25,1.16-1.07,0.91-1.82C362.22-196.56,361.88-196.89,361.45-197.04"/>
		<path class="st0" d="M283.33-163.75c0.71,1.01,1.59,1.89,2.59,2.6c-1.01,0.71-1.89,1.59-2.59,2.6c-0.71-1.01-1.59-1.89-2.6-2.6
			C281.74-161.86,282.62-162.74,283.33-163.75 M283.33-153.96c0.62,0,1.17-0.4,1.36-0.98c0.77-2.28,2.56-4.08,4.84-4.84
			c0.75-0.25,1.16-1.07,0.91-1.82c-0.14-0.43-0.48-0.77-0.91-0.91c-2.28-0.77-4.08-2.56-4.84-4.84c-0.25-0.75-1.07-1.16-1.82-0.91
			c-0.43,0.14-0.77,0.48-0.91,0.91c-0.77,2.28-2.56,4.08-4.84,4.84c-0.75,0.25-1.16,1.07-0.91,1.82c0.14,0.43,0.48,0.77,0.91,0.91
			c2.28,0.77,4.08,2.56,4.84,4.84C282.16-154.35,282.71-153.96,283.33-153.96"/>
	</g>
	<g>
		<path class="st0" d="M640.41-142.18h-61.14c-0.77,0-1.39-0.62-1.39-1.39v-54.19h63.92v54.19
			C641.8-142.81,641.18-142.18,640.41-142.18 M637.63-136.63h-55.58v-2.78h55.58V-136.63z M582.05-214.44h55.58
			c2.3,0,4.17,1.87,4.17,4.17v9.73h-63.92v-9.73C577.88-212.58,579.75-214.44,582.05-214.44 M637.63-217.22h-55.58
			c-3.83,0-6.94,3.11-6.95,6.95v66.7c0,2.3,1.87,4.17,4.17,4.17v4.17c0,0.77,0.62,1.39,1.39,1.39h58.36c0.77,0,1.39-0.62,1.39-1.39
			v-4.17c2.3,0,4.17-1.87,4.17-4.17v-66.7C644.58-214.11,641.47-217.22,637.63-217.22"/>
		<path class="st0" d="M583.44-208.88h13.9v2.78h-13.9V-208.88z M582.05-203.33h16.67c0.77,0,1.39-0.62,1.39-1.39v-5.56
			c0-0.77-0.62-1.39-1.39-1.39h-16.67c-0.77,0-1.39,0.62-1.39,1.39v5.56C580.66-203.95,581.28-203.33,582.05-203.33"/>
		<path class="st0" d="M607.06-208.88c0.77,0,1.39,0.62,1.39,1.39c0,0.77-0.62,1.39-1.39,1.39c-0.77,0-1.39-0.62-1.39-1.39
			C605.67-208.26,606.3-208.88,607.06-208.88 M607.06-203.33c2.3,0,4.17-1.87,4.17-4.17c0-2.3-1.87-4.17-4.17-4.17
			c-2.3,0-4.17,1.87-4.17,4.17C602.9-205.19,604.76-203.33,607.06-203.33"/>
		<path class="st0" d="M618.18-208.88c0.77,0,1.39,0.62,1.39,1.39c0,0.77-0.62,1.39-1.39,1.39c-0.77,0-1.39-0.62-1.39-1.39
			C616.79-208.26,617.41-208.88,618.18-208.88 M618.18-203.33c2.3,0,4.17-1.87,4.17-4.17c0-2.3-1.87-4.17-4.17-4.17
			c-2.3,0-4.17,1.87-4.17,4.17C614.01-205.19,615.88-203.33,618.18-203.33"/>
		<path class="st0" d="M626.52-206.11h2.78c0.77,0,1.39-0.62,1.39-1.39c0-0.77-0.62-1.39-1.39-1.39h-2.78
			c-0.77,0-1.39,0.62-1.39,1.39C625.13-206.73,625.75-206.11,626.52-206.11"/>
		<path class="st0" d="M634.86-206.11h2.78c0.77,0,1.39-0.62,1.39-1.39c0-0.77-0.62-1.39-1.39-1.39h-2.78
			c-0.77,0-1.39,0.62-1.39,1.39C633.47-206.73,634.09-206.11,634.86-206.11"/>
		<path class="st0" d="M609.84-150.52c-10.74,0-19.45-8.71-19.45-19.46c0-10.74,8.71-19.45,19.45-19.45
			c10.74,0,19.45,8.71,19.45,19.45C629.29-159.24,620.58-150.53,609.84-150.52 M609.84-192.21c-12.28,0-22.23,9.95-22.23,22.23
			c0,12.28,9.95,22.23,22.23,22.23c12.28,0,22.23-9.95,22.23-22.23C632.06-182.25,622.12-192.19,609.84-192.21"/>
		<path class="st0" d="M609.84-154.69c-5.6,0-10.75-3.07-13.43-7.99c2.99-1.02,6.11-1.6,9.26-1.74c1.73-0.05,3.44,0.39,4.94,1.25
			c1.89,1.05,4.02,1.58,6.18,1.53c2.33,0.01,4.64-0.52,6.73-1.55C620.95-157.99,615.65-154.7,609.84-154.69 M609.84-185.26
			c8.42-0.02,15.27,6.79,15.29,15.21c0,1.14-0.12,2.27-0.37,3.38c-0.72,0.24-1.44,0.52-2.13,0.83c-1.8,0.94-3.81,1.42-5.84,1.42
			c-1.73,0.05-3.44-0.39-4.94-1.25c-1.89-1.05-4.02-1.58-6.18-1.53c-3.53,0.14-7.02,0.8-10.36,1.95
			c-2.62-8.01,1.75-16.63,9.77-19.25C606.62-185.01,608.23-185.26,609.84-185.26 M609.84-188.04c-9.97-0.01-18.06,8.06-18.07,18.03
			c0,2.36,0.46,4.7,1.36,6.89c0.01,0.03,0,0.06,0.01,0.08c0.01,0.03,0.04,0.05,0.05,0.09c3.87,9.19,14.45,13.5,23.64,9.63
			c5.14-2.17,8.99-6.59,10.43-11.98c0.01-0.02,0.01-0.05,0.02-0.07c2.58-9.6-3.11-19.47-12.71-22.05
			C613.04-187.84,611.44-188.05,609.84-188.04"/>
	</g>
</g>
<g>
	<path class="st0" d="M70.2,67.93c-1.48,0-2.67-1.2-2.67-2.67c0-1.48,1.2-2.67,2.67-2.67c1.48,0,2.67,1.2,2.67,2.67
		C72.88,66.73,71.68,67.93,70.2,67.93 M70.2,59.9c-2.95,0-5.35,2.4-5.35,5.35s2.4,5.35,5.35,5.35c2.95,0,5.35-2.39,5.35-5.35
		S73.16,59.9,70.2,59.9"/>
	<path class="st0" d="M79.56,66.88l-1.63,0.4c-0.41,0.1-0.75,0.4-0.91,0.79c-0.16,0.39-0.13,0.84,0.08,1.2l0.87,1.44l-2.3,2.3
		l-1.44-0.87c-0.37-0.21-0.81-0.24-1.2-0.08c-0.39,0.16-0.68,0.5-0.79,0.91l-0.4,1.63h-3.26l-0.4-1.63c-0.1-0.41-0.4-0.75-0.79-0.91
		c-0.39-0.16-0.84-0.13-1.2,0.08l-1.44,0.87l-2.3-2.3l0.87-1.44c0.21-0.37,0.24-0.81,0.08-1.2c-0.16-0.39-0.5-0.68-0.91-0.79
		l-1.63-0.4v-3.26l1.63-0.4c0.41-0.1,0.75-0.4,0.91-0.79c0.16-0.39,0.13-0.84-0.08-1.2l-0.87-1.44l2.3-2.3l1.44,0.86
		c0.36,0.22,0.81,0.26,1.2,0.09c0.39-0.16,0.68-0.5,0.79-0.91l0.4-1.63h3.26l0.4,1.63c0.11,0.41,0.4,0.75,0.79,0.91
		c0.39,0.16,0.84,0.13,1.2-0.09l1.44-0.86l2.3,2.3l-0.87,1.44c-0.21,0.37-0.24,0.81-0.08,1.2c0.16,0.39,0.5,0.68,0.91,0.79l1.63,0.4
		V66.88z M63.52,78.62c0,0.74-0.6,1.34-1.34,1.34h-8.02v-4.01c0-0.62-0.42-1.15-1.02-1.3l-0.9-0.23l0.48-0.79
		c0.31-0.53,0.23-1.19-0.2-1.63l-3.78-3.78c-0.44-0.43-1.1-0.51-1.63-0.2l-0.79,0.48l-0.23-0.9c-0.15-0.6-0.68-1.02-1.3-1.02h-5.35
		c-0.61,0-1.15,0.42-1.3,1.02l-0.23,0.9l-0.79-0.48c-0.53-0.31-1.19-0.23-1.63,0.2L31.72,72c-0.43,0.44-0.51,1.1-0.2,1.63L32,74.42
		l-0.9,0.23c-0.6,0.15-1.02,0.68-1.02,1.3v4.01h-8.02c-0.74,0-1.34-0.6-1.34-1.34v-3.03l3.72-3.72c0.43-0.44,0.51-1.1,0.2-1.63
		l-0.48-0.79l0.9-0.23c0.6-0.15,1.01-0.68,1.02-1.3v-5.35c0-0.61-0.42-1.15-1.02-1.3l-0.9-0.23l0.48-0.79
		c0.32-0.53,0.23-1.2-0.2-1.63l-3.72-3.72v-0.36c0.01-2.21,1.8-4.01,4.01-4.01h7.66l9.05,5.17c0.42,0.23,0.92,0.23,1.34,0l9.05-5.17
		h7.66c2.21,0.01,4,1.8,4.01,4.01v0.36l-3.72,3.72c-0.43,0.43-0.51,1.11-0.2,1.63l0.48,0.79l-0.9,0.23c-0.6,0.15-1.01,0.68-1.02,1.3
		v5.35c0,0.61,0.42,1.15,1.02,1.3l0.9,0.23l-0.48,0.79c-0.32,0.53-0.23,1.2,0.2,1.63l3.72,3.72V78.62z M51.48,79.96h-4.2
		c0.11-0.44,0.18-0.88,0.19-1.34c0-2.95-2.4-5.35-5.35-5.35c-2.95,0-5.35,2.39-5.35,5.35c0.01,0.45,0.07,0.9,0.19,1.34h-4.2v-2.97
		l1.63-0.4c0.41-0.1,0.75-0.4,0.91-0.79c0.16-0.39,0.13-0.83-0.08-1.19l-0.87-1.44l2.31-2.31l1.45,0.87
		c0.36,0.22,0.8,0.25,1.19,0.08c0.39-0.16,0.69-0.5,0.79-0.91l0.4-1.63h3.26l0.4,1.63c0.1,0.41,0.39,0.75,0.79,0.91
		c0.39,0.16,0.83,0.13,1.19-0.08l1.44-0.87l2.31,2.31l-0.87,1.44c-0.21,0.36-0.24,0.8-0.08,1.19c0.16,0.39,0.5,0.69,0.91,0.79
		l1.63,0.4V79.96z M44.43,79.96h-4.63c-0.74-1.28-0.31-2.91,0.97-3.65c1.28-0.74,2.91-0.31,3.65,0.97
		C44.92,78.11,44.92,79.13,44.43,79.96 M18.06,72.15c-0.37-0.21-0.81-0.24-1.2-0.08c-0.39,0.16-0.68,0.5-0.79,0.91l-0.4,1.63h-3.26
		l-0.4-1.63c-0.11-0.41-0.4-0.75-0.79-0.91c-0.39-0.16-0.84-0.13-1.2,0.08l-1.45,0.87l-2.3-2.3l0.87-1.44
		c0.21-0.37,0.24-0.81,0.08-1.2c-0.16-0.39-0.5-0.68-0.91-0.79l-1.63-0.4v-3.26l1.63-0.4c0.41-0.1,0.75-0.4,0.91-0.79
		c0.16-0.39,0.13-0.84-0.08-1.2l-0.87-1.44l2.3-2.3l1.45,0.86c0.36,0.22,0.81,0.26,1.2,0.09c0.39-0.16,0.68-0.5,0.79-0.91l0.4-1.63
		h3.26l0.4,1.63c0.1,0.41,0.4,0.75,0.79,0.91c0.39,0.16,0.84,0.13,1.2-0.09l1.44-0.86l2.3,2.3l-0.87,1.44
		c-0.21,0.37-0.24,0.81-0.08,1.2c0.16,0.39,0.5,0.68,0.91,0.79l1.63,0.4v3.26l-1.63,0.4c-0.41,0.1-0.75,0.4-0.91,0.79
		c-0.16,0.39-0.13,0.84,0.08,1.2l0.87,1.44l-2.3,2.3L18.06,72.15z M15.78,41.28l3.7-3.7l9.59,10.3h-4.33
		c-0.56,0.01-1.11,0.08-1.64,0.23L15.78,41.28z M7.38,34.79l-2.34-5.46l2.5-2.5L13,29.17l4.76,6.34l-4.04,4.04L7.38,34.79z
		 M38.91,46.26c0.33-0.26,0.53-0.65,0.54-1.07v-2.94c1.76,0.36,3.58,0.36,5.35,0v2.94c0,0.42,0.2,0.81,0.54,1.07l3.72,2.79
		l-6.93,3.96l-6.93-3.96L38.91,46.26z M31.42,29.15v-9.81l7.76-3.32c-0.12,0.55-0.36,1.07-0.71,1.52c-0.22,0.22-0.45,0.42-0.7,0.6
		c-0.73,0.4-1.11,1.23-0.94,2.05c0.2,0.58,0.68,1.01,1.27,1.15c2.64,0.46,5.35-0.2,7.49-1.82c0.6-0.46,1.13-0.99,1.58-1.59
		l5.64,1.54v9.68c0,5.91-4.79,10.7-10.7,10.7C36.21,39.85,31.42,35.06,31.42,29.15 M28.75,18.45v0.96c-0.83-0.47-1.33-1.35-1.34-2.3
		v-2.67c0.01-5.17,4.19-9.35,9.36-9.36h20.06v8.02c0,1.64-0.61,3.22-1.71,4.44c-0.16-0.18-0.38-0.31-0.61-0.37l-7.54-2.06
		c-0.57-0.16-1.18,0.08-1.48,0.59c-0.39,0.66-0.89,1.23-1.5,1.7c-0.9,0.67-1.95,1.12-3.05,1.32c0.7-1.28,1.11-2.7,1.19-4.16
		c0.07-0.74-0.48-1.39-1.21-1.45c-0.04,0-0.08-0.01-0.13,0h-1.34c-0.18,0-0.36,0.04-0.52,0.11l-9.36,4.01
		C29.07,17.43,28.75,17.91,28.75,18.45 M28.75,27.81c-0.74,0-1.34-0.6-1.34-1.34v-1.34c0-0.74,0.6-1.34,1.34-1.34V27.81z
		 M56.83,25.14v1.34c0,0.74-0.6,1.34-1.34,1.34V23.8C56.23,23.8,56.83,24.4,56.83,25.14 M61.5,42.11c0.41-0.41,0.5-1.04,0.24-1.55
		c-1.52-3.05-0.39-7.77,2.59-10.74c1.85-1.88,4.41-2.9,7.05-2.81l-4.33,5.78c-0.4,0.53-0.35,1.28,0.12,1.75l5.67,5.67
		c0.47,0.47,1.22,0.52,1.75,0.12l5.78-4.33c0.09,2.64-0.92,5.2-2.81,7.05c-2.82,2.86-7.02,3.85-10.82,2.55
		c-0.5-0.22-1.08-0.1-1.47,0.28l-2.74,2.75c-0.93-0.49-1.97-0.75-3.02-0.76h-3.78L61.5,42.11z M81.22,61.28l-0.9-0.23l0.48-0.79
		c0.32-0.53,0.23-1.2-0.2-1.63l-3.78-3.78c-0.44-0.43-1.11-0.51-1.63-0.2l-0.79,0.48l-0.23-0.9c-0.15-0.6-0.68-1.02-1.3-1.02h-5.35
		c-0.61,0-1.15,0.42-1.3,1.02l-0.05,0.2c-0.03-1.51-0.58-2.97-1.55-4.13l1.94-1.93c4.6,1.25,9.52-0.06,12.89-3.44
		c3.08-3.05,4.29-7.51,3.17-11.7c-0.11-0.43-0.43-0.78-0.86-0.92c-0.42-0.14-0.88-0.06-1.23,0.2l-6.63,4.97l-4.02-4.03l4.97-6.63
		c0.26-0.35,0.34-0.81,0.2-1.23c-0.14-0.42-0.49-0.75-0.92-0.86c-4.19-1.12-8.65,0.09-11.7,3.17c-3.53,3.53-4.93,8.9-3.48,12.93
		l-7.01,7.02h-0.03l-4.45-3.34V41.4c4.42-1.94,7.46-6.11,7.96-10.91h0.07c2.21-0.01,4.01-1.8,4.01-4.01v-1.34
		c-0.01-2.21-1.8-4-4.01-4.01v-0.38c2.5-1.74,4-4.6,4.01-7.65V3.74c0-0.74-0.6-1.34-1.34-1.34h-21.4
		C30.13,2.42,24.75,7.8,24.74,14.44v2.67c0,1.76,0.87,3.4,2.31,4.4c-1.41,0.66-2.31,2.07-2.31,3.62v1.34c0.01,2.21,1.8,4,4.01,4.01
		h0.07c0.49,4.8,3.53,8.97,7.96,10.91v3.13l-4.21,3.16L20.57,34.8l-5.64-7.53c-0.15-0.19-0.33-0.33-0.55-0.43l-6.62-2.83
		c-0.5-0.22-1.08-0.1-1.47,0.28L2.5,28.08c-0.39,0.39-0.5,0.97-0.28,1.47l2.83,6.62c0.1,0.21,0.24,0.4,0.43,0.55l7.53,5.64
		l7.54,7.02c-1.54,1.23-2.45,3.08-2.49,5.06l-0.05-0.2c-0.15-0.6-0.68-1.02-1.3-1.02h-5.35c-0.61,0-1.15,0.42-1.3,1.02l-0.23,0.9
		l-0.79-0.48c-0.53-0.31-1.19-0.23-1.63,0.2l-3.78,3.78c-0.43,0.44-0.51,1.1-0.2,1.63l0.48,0.79l-0.9,0.23
		c-0.6,0.15-1.02,0.68-1.02,1.3v5.35c0,0.61,0.42,1.15,1.02,1.3l0.9,0.23l-0.48,0.79c-0.32,0.53-0.23,1.2,0.2,1.63l3.78,3.78
		c0.43,0.43,1.11,0.52,1.63,0.2l0.79-0.48l0.23,0.9c0.15,0.6,0.68,1.01,1.3,1.02h5.35c0.61,0,1.15-0.42,1.3-1.02l0.04-0.16v2.51
		c0.01,2.21,1.8,4,4.01,4.01h40.12c2.21-0.01,4.01-1.8,4.01-4.01v-2.51l0.04,0.16c0.15,0.6,0.68,1.01,1.3,1.02h5.35
		c0.62,0,1.15-0.42,1.3-1.02l0.23-0.9l0.79,0.48c0.53,0.32,1.2,0.23,1.63-0.2l3.78-3.78c0.43-0.43,0.52-1.11,0.2-1.63l-0.48-0.79
		l0.9-0.23c0.6-0.15,1.02-0.68,1.02-1.3v-5.35C82.24,61.96,81.82,61.43,81.22,61.28"/>
	<path class="st0" d="M14.04,67.93c-1.48,0-2.67-1.2-2.67-2.67c0-1.48,1.2-2.67,2.67-2.67c1.48,0,2.67,1.2,2.67,2.67
		C16.71,66.73,15.52,67.93,14.04,67.93 M14.04,59.9c-2.95,0-5.35,2.4-5.35,5.35s2.4,5.35,5.35,5.35c2.95,0,5.35-2.39,5.35-5.35
		S16.99,59.9,14.04,59.9"/>
</g>
</svg>
